<svg xmlns="http://www.w3.org/2000/svg" xmlns:xlink="http://www.w3.org/1999/xlink" width="133.333" height="133.333" viewBox="0 0 100 100" xmlns:v="https://vecta.io/nano"><style><![CDATA[.B{stroke:none}.C{filter:url(#G)}.D{fill:rgb(0%,0%,0%)}.E{fill-rule:nonzero}.F{fill:rgb(85.098039%,60.784314%,23.137255%)}.G{fill-opacity:1}.H{fill-opacity:.502}.I{fill-opacity:.749}.J{fill-rule:evenodd}.K{stroke-linejoin:round}.L{stroke-miterlimit:5.1}]]></style><defs><linearGradient id="A" x1="16.97" y1="33.292" x2="23.056" y2="25.351" xlink:href="#v"><stop offset="0" stop-color="rgb(83.921569%,58.039216%,21.960784%)"/><stop offset="1" stop-color="rgb(98.039216%,78.039216%,29.803922%)"/></linearGradient><linearGradient id="B" x1="39.772" y1="49.849" x2="26.064" y2="42.529" xlink:href="#v"><stop offset="0" stop-color="rgb(45.098039%,26.27451%,1.568627%)"/><stop offset="1" stop-color="rgb(83.137255%,48.235294%,23.529412%)"/></linearGradient><linearGradient id="C" x1="14.959" y1="58.031" x2="14.364" y2="64.381" xlink:href="#v"><stop offset="0" stop-color="rgb(83.921569%,58.039216%,21.960784%)"/><stop offset="1" stop-color="rgb(78.039216%,45.490196%,22.352941%)"/></linearGradient><radialGradient id="D" cx="-838.384" cy="110.03" fx="-838.384" fy="110.03" r="31.495" gradientTransform="matrix(-0.231355,1.40606,-1.312969,-0.212258,11.033684,1264.364322)" xlink:href="#v"><stop offset="0" stop-color="rgb(90.588235%,64.313725%,28.235294%)"/><stop offset="1" stop-color="rgb(98.039216%,78.431373%,43.921569%)"/></radialGradient><linearGradient id="E" x1="58.006" y1="19.866" x2="73.448" y2="19.199" xlink:href="#v"><stop offset="0" stop-color="rgb(98.039216%,78.039216%,29.803922%)"/><stop offset="1" stop-color="rgb(45.098039%,26.27451%,1.568627%)"/></linearGradient><linearGradient id="F" x1="-822.294" y1="80.163" x2="-809.156" y2="86.432" gradientTransform="matrix(-0.962269,0.382933,0.386327,0.953813,-796.014797,260.51387)" xlink:href="#v"><stop offset="0" stop-color="rgb(98.039216%,78.039216%,29.803922%)"/><stop offset="1" stop-color="rgb(83.921569%,58.039216%,21.960784%)"/></linearGradient><filter id="G" x="0%" y="0%" width="100%" height="100%"><feColorMatrix in="SourceGraphic" values="0 0 0 0 1 0 0 0 0 1 0 0 0 0 1 0 0 0 1 0"/></filter><mask id="H"><g class="C"><path d="M0 0h100v100H0z" class="B D I"/></g></mask><clipPath id="I"><path d="M0 0h100v100H0z"/></clipPath><g id="J" clip-path="url(#I)"><path d="M41.133 67.461c.75.387 2.414.75 3.578 1.129 1.84.359 2.539.793 4.402 1.152.738.16.289.367-.742.129-1.473.078 1.402.555 1.801.785l6.883 2.004c-.785-.402-1.93-.816-3.184-1.215-.84-.16-2.18-.676-.98-.578l4.176 1.191c1.004.348 2.387.844 4.133 1.063-1.055-.441-1.574-.91-3.559-1.332-2.937-.902-6.285-1.785-9.793-2.656l-4.641-1.254c-.73-.133-1.336-.281-2.074-.418zm9.074 2.75c1.395.09 1.938.668.289.25-.332-.074-1.832-.496-.289-.25zm7.484 1.852c-.266.063-.23-.055-.012-.023zm-17.496-4.387c-.098.121 1.816.641 1.762.453-.391-.156-.738-.352-1.762-.453zm6.594 1.801c-.93-.32-2.055-.648-3.48-.941.586.242 2.066.754 3.48.941zm-13.062-1.145c.27.445 2.977.867 3.813 1.313 1.719.313-.352-.258-.707-.379l-3.105-.934zm10.43.84c1.344.523 3.441 1.027 5.086 1.539 1.652.184-.848-.387-1.152-.508-1.219-.336-2.551-.754-3.934-1.031zm-6.582-.797c2.027.738 4.75 1.457 7.184 2.18.305.059 12.711 3.621 7.723 1.996l-14.906-4.176zm2.375.027c.227.297 1.883.586 2.941.867.629.152 2.336.547 2.512.531l-5.453-1.398zm-6.461.477c.594.48 3.219.938 4.176 1.422 1.223.41 2.707.82 3.477 1.234 3.727 1.629-.738-.102-3.496-.703-1.41-.277-1.73-.582-2.355-.871-.91-.152-1.434-.457-1.148-.488-1.883.109 1.449.594 1.469.875.824.344 2.652.668 3.074 1.016-1.41-.254-1.918-.574-2.844-.859-.516-.211-1.816-.633-2.301-.703 1.5.48 2.477.973 4.352 1.441 3.621 1.355 1.18.461-1.859-.246-.848-.254-.965-.605-2.52-.793 4.77 1.809 15.586 4.977 6.301 1.594.438.09 20.426 4.168 4.668-.09l-4.832-1.578c-1.238-.039 1.215.441 1.461.605 11.781 3.297 7.352 2.746-1.395.102l-6.227-1.957zm1.617.531c-.797-.047.234-.105 0 0zm4.172.68c-.531-.012.254-.066 0 0zm1.195.34c.5.129-.641-.105 0 0zm4.777 1.559c-1.074-.086.082-.207 0 0zm-5.07-.32c-.016.094-.336-.086 0 0zm5.902-1.512c2.703.883 5.98 1.75 9.141 2.617.453.125 2.383.582 1.25.234l-9.109-2.559c-.434-.098-.742-.211-1.281-.293zm-12.734-.949c-.473.16.875.047 0 0zm17.328 1.855c-.121.113 2.227.68 1.324.332a7.77 7.77 0 0 0-1.324-.332zm-17.641-1.117c.234.184.059-.113 0 0zm-.094.285c-.203.348 1.652.77 1.75 1.133 6.91 1.211 3.195.629-.875-.762-.289-.125-.516-.25-.875-.371zm.371.07c-.078.23 1.605.234 0 0zm1.043.359c-.25.094.629.07 0 0zm.648.234c.5.145-.148-.102 0 0zm3.406.426c.184.094.207-.059 0 0zm-2.316-.082c.523.152-.184-.102 0 0zm.316.137c-.059.113.629.051 0 0zm.328.105c-.141.102.531.051 0 0zm.328.109c-.082.102.855.098 0 0zm0 0" class="B E F G"/></g><mask id="K"><g class="C"><path d="M0 0h100v100H0z" class="B D H"/></g></mask><clipPath id="L"><path d="M0 0h100v100H0z"/></clipPath><g id="M" clip-path="url(#L)"><path d="M62.777 49.816c-1.398 1.266-4.195 2.172-6.223 3.277-3.066.828-4.418 2.293-7.512 3.117-1.238.406-.68 1.348 1.063.742 2.227.75-2.508 1.723-3.27 2.492-4.008 1.871-8.336 3.648-11.867 5.66 1.461-1.328 3.488-2.57 5.672-3.738 1.395-.367 3.781-1.949 1.871-1.953-2.125 1.223-4.734 2.277-7.191 3.352-1.762 1.039-4.207 2.543-7.035 2.855 1.902-1.395 2.996-3.055 6.32-4.094 5.098-2.59 10.809-4.988 16.766-7.285 2.719-1.121 5.371-2.27 7.941-3.441 1.215-.297 2.242-.691 3.465-.984zm-15.719 7.887c-2.207-.09-3.402 1.992-.598.879.559-.184 3.137-1.355.598-.879zM34.359 62.59c.371.316.387-.148.031-.102zm29.734-11.652c.074.5-3.207 1.938-3.004 1.219.703-.484 1.359-1.141 3.004-1.219zM52.793 55.91c1.629-.965 3.57-1.887 5.953-2.586-1.055.754-3.656 2.289-5.953 2.586zm20.871-.406c-.691 1.641-5.133 2.445-6.703 3.922-2.848.688.707-.898 1.328-1.258 1.734-.906 3.508-1.801 5.375-2.664zm-16.617.035c-2.402 1.621-5.953 2.918-8.809 4.414-2.668.191 1.551-1.25 2.094-1.621 2.094-.93 4.406-2.148 6.715-2.793zm10.648-1.059c-3.586 2.234-8.23 4.184-12.441 6.246-.504.129-21.871 10.156-13.16 5.371L67.695 54.48zm-3.68-.645c-.535 1.09-3.27 1.703-5.082 2.473-1.062.395-3.941 1.395-4.199 1.285 3.063-1.266 6-2.574 9.281-3.758zm9.672 3.867c-1.215 1.691-5.547 2.652-7.328 4.23-2.141 1.215-4.687 2.352-6.133 3.73-6.766 5.188 1.203-.168 5.832-1.645 2.352-.656 3.035-1.734 4.18-2.66 1.5-.316 2.496-1.344 2.074-1.555 2.844 1.008-2.602 1.863-2.809 2.949-1.484 1.086-4.512 1.789-5.375 3.012 2.328-.559 3.316-1.645 4.922-2.461.93-.664 3.199-1.902 3.984-2.023-2.609 1.398-4.422 3.016-7.605 4.254-6.437 4.152-2.113 1.426 3.016-.379 1.469-.723 1.867-2.062 4.387-2.309-8.488 5.559-27.152 14.527-10.715 4.242-.73.211-34.121 9.891-7.148-1.789 2.918-1.516 5.598-3.102 8.438-4.641 1.938.223-2.148 1.336-2.633 1.902-20.234 9.176-13.055 8.402 2.086.832 3.563-1.91 6.949-3.875 10.828-5.691zm-2.82 1.563c1.258.066-.297-.488 0 0zm-6.863 1.352c.824.113-.352-.336 0 0zm-2.059.949c-.852.355 1.059-.211 0 0zm-8.34 4.582c1.711.004 0-.82 0 0zm8.023.336c-.035.371.57-.242 0 0zm-8.168-7.727c-4.723 2.609-10.316 4.961-15.734 7.355-.777.34-4.039 1.531-2.078.52 5.113-2.406 10.109-4.863 15.656-7.129.727-.234 1.273-.594 2.156-.746zm20.246.262c.625.773-1.383-.082 0 0zm-27.898 1.84c.113.488-3.859 1.961-2.25.887.605-.34 1.27-.691 2.25-.887zm27.918 1.133c-.473.637-.02-.461 0 0zm-.031 1.133c.09 1.426-3.031 2.484-3.406 3.867-11.418 2.582-5.32 1.461 1.824-2.687.523-.395.949-.809 1.582-1.18zm-.617.16c-.023.926-2.625.426 0 0zm-1.836 1.082c.328.434-1.008.07 0 0zm-1.148.707c-.859.406.293-.34 0 0zm-5.52.605c-.34.313-.285-.289 0 0zm3.629.395c-.906.426.348-.34 0 0zm-.578.441c.023.453-1.004 0 0 0zm-.57.305c.156.441-.852.027 0 0zm-.574.324c.066.418-1.379.113 0 0zm0 0" class="B E F G"/></g><mask id="N"><g class="C"><path d="M0 0h100v100H0z" class="B D I"/></g></mask><clipPath id="O"><path d="M0 0h100v100H0z"/></clipPath><g id="P" clip-path="url(#O)"><path d="M68.027 42.215c.383-.207 1.125-.395 1.668-.594.809-.18 1.18-.414 2-.594.328-.082.191-.203-.27-.082-.57-.059.676-.293.883-.418l3.172-1.043c-.398.215-.945.434-1.527.645-.371.078-1.012.352-.516.313.57-.219 1.266-.418 1.922-.621.473-.184 1.129-.445 1.871-.551-.512.238-.82.492-1.699.707l-4.469 1.375-2.117.652-.918.211zm4.203-1.437c.574-.035.914-.352.168-.137-.148.035-.836.258-.168.137zm3.375-.953c-.09-.035-.102.027-.008.016zm-7.906 2.258c-.012-.066.863-.34.801-.234-.191.086-.371.191-.801.234zm3.012-.934c-.437.168-.957.34-1.586.488.285-.129.984-.398 1.586-.488zm-5.457.492c.203-.242 1.371-.449 1.801-.691.75-.156-.195.141-.363.207l-1.437.484zm4.344-.352c.645-.277 1.59-.535 2.352-.805.699-.082-.418.207-.566.273l-1.785.531zm-2.797.371c.965-.387 2.203-.762 3.328-1.137.129-.027 5.836-1.887 3.5-1.031l-6.828 2.168zm.953.016c.152-.164.875-.309 1.359-.457l1.113-.266-2.473.723zm-2.48-.344c.34-.262 1.484-.488 1.969-.746l1.645-.652c1.832-.871-.316.047-1.543.352-.621.141-.812.309-1.125.461-.395.078-.668.242-.559.262-.73-.082.703-.316.77-.473.402-.184 1.199-.344 1.441-.535-.617.129-.887.301-1.316.449a7.08 7.08 0 0 1-1.066.367c.699-.25 1.191-.516 2.039-.758 1.73-.719.57-.242-.793.117-.391.133-.512.328-1.172.418 2.281-.961 7.27-2.609 2.848-.82.195-.047 9.035-2.105 1.848.102l-2.262.828c-.504.008.578-.234.711-.324 5.398-1.711 3.512-1.453-.535-.07l-2.898 1.023zm.758-.277c-.328.016.07.063 0 0zm1.809-.332c-.215 0 .086.039 0 0zm.551-.18c.227-.066-.281.055 0 0zm2.234-.816c-.449.035-.012.113 0 0zm-2.094.121c.016-.055-.152.043 0 0zm2.039.914l4.199-1.363c.207-.062 1.074-.301.551-.117l-4.176 1.332c-.195.047-.34.109-.574.148zm-5.285.387c-.152-.098.359-.02 0 0zm7.313-.844c-.027-.062 1.031-.355.598-.172-.164.063-.34.125-.598.172zm-7.281.426c.133-.098 0 .063 0 0zm.023-.16c-.008-.199.82-.41.938-.613 3.012-.602 1.406-.316-.512.414l-.426.199zm.16-.035c.02-.129.691-.113 0 0zm.496-.191c-.082-.055.262-.031 0 0zm.309-.121c.227-.074-.082.055 0 0zm1.449-.203c.09-.051.07.035 0 0zm-.945.023c.242-.082-.094.055 0 0zm.156-.074c0-.062.262-.023 0 0zm.152-.055c-.035-.059.223-.023 0 0zm.156-.059c-.012-.059.359-.047 0 0zm0 0" class="B E F G"/></g><mask id="Q"><g class="C"><path d="M0 0h100v100H0z" class="B D H"/></g></mask><clipPath id="R"><path d="M0 0h100v100H0z"/></clipPath><g id="S" clip-path="url(#R)"><path d="M64.75 35.191c-1.656 1.203-4.973 2.07-7.371 3.121-3.629.789-5.23 2.18-8.895 2.965-1.469.383-.801 1.281 1.258.703 2.637.715-2.969 1.641-3.871 2.371-4.742 1.777-9.867 3.469-14.047 5.383 1.73-1.266 4.125-2.445 6.711-3.555 1.652-.348 4.48-1.852 2.219-1.859-2.516 1.164-5.605 2.168-8.512 3.191-2.09.984-4.98 2.418-8.332 2.715 2.25-1.328 3.543-2.906 7.484-3.895 6.035-2.461 12.797-4.742 19.848-6.93 3.219-1.066 6.359-2.156 9.402-3.27 1.438-.285 2.652-.66 4.105-.941zm-18.613 7.504c-2.613-.086-4.031 1.895-.707.836.66-.176 3.711-1.293.707-.836zm-15.035 4.648c.438.297.457-.145.035-.098zm35.203-11.082c.086.473-3.797 1.844-3.555 1.16.828-.465 1.605-1.086 3.555-1.16zm-13.379 4.727c1.93-.914 4.227-1.793 7.047-2.457-1.246.715-4.328 2.176-7.047 2.457zm24.711-.383c-.82 1.559-6.078 2.324-7.937 3.727-3.371.652.84-.855 1.574-1.195 2.051-.859 4.148-1.711 6.363-2.531zm-19.676.031c-2.844 1.539-7.047 2.777-10.43 4.195-3.156.184 1.836-1.184 2.48-1.543 2.477-.883 5.219-2.039 7.949-2.652zm12.609-1.008c-4.246 2.125-9.746 3.98-14.73 5.941-.594.121-25.895 9.66-15.578 5.109L70.57 39.629zm-4.359-.609c-.629 1.035-3.867 1.617-6.016 2.352-1.258.371-4.668 1.324-4.973 1.219 3.629-1.203 7.105-2.445 10.988-3.57zm11.453 3.672c-1.437 1.609-6.566 2.523-8.676 4.023-2.535 1.16-5.551 2.242-7.262 3.551-8.008 4.934 1.426-.16 6.902-1.566 2.789-.621 3.598-1.645 4.953-2.527 1.773-.301 2.953-1.277 2.453-1.477 3.367.957-3.082 1.773-3.324 2.801-1.758 1.035-5.34 1.703-6.367 2.867 2.762-.531 3.93-1.566 5.828-2.344 1.102-.629 3.789-1.805 4.719-1.922-3.09 1.332-5.238 2.867-9.004 4.047-7.621 3.949-2.5 1.355 3.57-.363 1.738-.687 2.211-1.957 5.195-2.195-10.051 5.285-32.152 13.816-12.687 4.035-.863.203-40.395 9.406-8.465-1.699 3.457-1.445 6.629-2.949 9.988-4.414 2.297.211-2.539 1.27-3.113 1.805-23.957 8.73-15.457 7.996 2.469.793 4.219-1.816 8.227-3.684 12.82-5.414zm-3.34 1.492c1.488.063-.348-.465 0 0zm-8.125 1.281c.977.109-.414-.32 0 0zm-2.437.906c-1.008.336 1.254-.203 0 0zm-9.875 4.355c2.023.004 0-.777 0 0zm9.5.32c-.039.355.676-.23 0 0zm-9.672-7.348c-5.59 2.48-12.215 4.719-18.629 6.996-.918.324-4.781 1.453-2.457.492 6.051-2.289 11.965-4.625 18.535-6.781.859-.223 1.504-.562 2.551-.707zm23.969.246c.746.738-1.633-.074 0 0zm-33.027 1.754c.137.461-4.566 1.859-2.664.84.719-.324 1.504-.656 2.664-.84zm33.055 1.074c-.562.605-.027-.437 0 0zm-.035 1.078c.105 1.355-3.59 2.359-4.039 3.676-13.516 2.457-6.297 1.391 2.16-2.555.625-.375 1.129-.77 1.879-1.121zm-.734.148c-.027.883-3.109.406 0 0zm-2.172 1.035c.391.41-1.195.063 0 0zm-1.359.672c-1.02.383.344-.328 0 0zm-6.535.57c-.406.301-.336-.273 0 0zm4.297.375c-1.074.41.41-.32 0 0zm-.684.422c.027.43-1.191 0 0 0zm-.68.289c.188.422-1.008.031 0 0zm-.676.309c.078.398-1.633.109 0 0zm0 0" class="B E F G"/></g><mask id="T"><g class="C"><path d="M0 0h100v100H0z" class="B D H"/></g></mask><clipPath id="U"><path d="M0 0h100v100H0z"/></clipPath><g id="V" clip-path="url(#U)"><path d="M47.082 28.902c-1.027 1.125-2.996 2.313-4.445 3.469-2.145 1.195-3.148 2.438-5.312 3.637-.875.527-.543 1.023.684.254 1.484.016-1.812 1.66-2.375 2.324-2.848 2.074-5.91 4.16-8.437 6.227 1.074-1.18 2.527-2.422 4.09-3.648.973-.539 2.695-2.078 1.391-1.676-1.523 1.25-3.371 2.496-5.109 3.723-1.266 1.051-3.023 2.555-4.977 3.363 1.379-1.316 2.219-2.633 4.555-4.02 3.633-2.777 7.676-5.559 11.883-8.332l5.625-3.937c.848-.453 1.574-.93 2.43-1.383zm-11.203 8.5c-1.504.414-2.437 2.027-.457.703.395-.238 2.223-1.555.457-.703zm-8.961 5.898c.234.125.273-.18.027-.074zm21-13.945c.023.309-2.305 1.949-2.125 1.438.508-.469.992-1.035 2.125-1.437zm-8.012 5.652c1.168-.977 2.551-1.992 4.219-2.957-.762.719-2.629 2.273-4.219 2.957zm14.309-4.715c-.562 1.215-3.648 2.691-4.805 3.988-1.988 1.055.535-.738.98-1.105 1.234-.961 2.5-1.922 3.824-2.883zm-11.379 3.566c-1.73 1.57-4.234 3.176-6.273 4.758-1.836.695 1.133-1.145 1.523-1.504 1.484-1.051 3.137-2.34 4.75-3.254zm7.352-2.961c-2.578 2.223-5.867 4.484-8.863 6.73-.352.188-15.535 11.289-9.305 6.309l18.168-13.039zm-2.484.363c-.426.824-2.332 1.809-3.613 2.699-.75.484-2.777 1.75-2.949 1.73l6.563-4.43zm6.41.461c-.926 1.359-3.945 2.91-5.254 4.32-1.531 1.254-3.34 2.539-4.402 3.742-4.922 4.828.832-.363 4.082-2.316 1.645-.926 2.172-1.777 3.008-2.625 1.047-.527 1.785-1.41 1.508-1.457 1.891.051-1.887 1.773-2.086 2.523-1.078 1.023-3.187 2.129-3.852 3.109 1.629-.859 2.363-1.777 3.508-2.656.676-.629 2.297-1.922 2.84-2.168-1.863 1.469-3.195 2.91-5.441 4.398-4.637 4.082-1.523 1.379 2.086-.891 1.047-.785 1.395-1.742 3.129-2.445-6.117 5.438-19.395 15.273-7.57 5.055-.512.297-23.906 13.734-4.793.359 2.082-1.613 4.004-3.215 6.031-4.828 1.316-.266-1.543 1.332-1.906 1.801-14.359 10.309-9.402 8.27 1.383.098 2.547-2.004 4.973-4.008 7.73-6.02zm-2.02 1.621c.855-.227-.176-.254 0 0zm-4.773 2.344c.559-.102-.223-.145 0 0zm-1.461 1.063c-.602.41.734-.367 0 0zm-5.965 4.766c1.172-.359.043-.535 0 0zm5.473-1.492c-.043.25.406-.281 0 0zm-5.164-3.297c-3.375 2.707-7.336 5.438-11.176 8.156-.551.387-2.852 1.859-1.453.781 3.633-2.664 7.191-5.332 11.113-7.992.512-.309.906-.656 1.516-.945zm13.848-4.148c.387.371-.941.242 0 0zM34.848 39.73c.055.293-2.746 2.102-1.586 1.059.434-.352.906-.723 1.586-1.059zm19.051-5.219c-.359.516.012-.297 0 0zm-.082.746c-.016.91-2.211 2.266-2.547 3.25-7.961 4.121-3.723 2.086 1.395-2.141.383-.371.699-.73 1.152-1.109zm-.43.234c-.07.609-1.824.84 0 0zm-1.32 1.102c.203.211-.695.258 0 0zm-.824.703c-.609.449.219-.285 0 0zm-3.812 1.57c-.25.277-.18-.125 0 0zm2.465-.516c-.645.473.254-.293 0 0zm-.422.414c-.008.289-.687.215 0 0zm-.41.32c.086.254-.582.199 0 0zm-.406.332c.02.258-.953.371 0 0zm0 0" class="B E F G"/></g><mask id="W"><g class="C"><path d="M0 0h100v100H0z" class="B D H"/></g></mask><clipPath id="X"><path d="M0 0h100v100H0z"/></clipPath><g id="Y" clip-path="url(#X)"><path d="M60.715 26.547c.527.715 1.766 1.371 2.613 2.059 1.379.637 1.859 1.441 3.25 2.082.551.289.176.695-.59.27-1.152.184 1.008 1.02 1.285 1.449l5.055 3.641c-.551-.75-1.383-1.504-2.297-2.234-.629-.285-1.598-1.23-.68-1.082.879.754 2.012 1.465 3.07 2.168.727.637 1.73 1.547 3.051 1.922-.754-.82-1.09-1.699-2.57-2.457-2.152-1.637-4.621-3.234-7.219-4.801l-3.418-2.27-1.551-.746zm6.648 5.008c1.066.133 1.406 1.223.188.469-.246-.133-1.352-.895-.187-.469zm5.539 3.336c-.215.121-.168-.102-.004-.051zm-12.945-7.91c-.09.23 1.32 1.18 1.305.82-.285-.289-.523-.652-1.305-.82zm4.859 3.266a11.48 11.48 0 0 0-2.562-1.703c.418.441 1.496 1.379 2.563 1.703zm-9.957-1.836c.148.836 2.188 1.57 2.773 2.402 1.285.551-.238-.488-.496-.707l-2.277-1.695zm7.961 1.324c.969.965 2.523 1.863 3.727 2.805 1.254.301-.602-.719-.824-.941-.898-.609-1.871-1.375-2.902-1.863zm-4.988-1.344c1.473 1.352 3.477 2.648 5.266 3.965.227.102 9.344 6.578 5.703 3.605-3.562-2.539-7.23-5.059-10.969-7.57zm1.84-.02c.133.563 1.375 1.074 2.156 1.582.465.273 1.734.977 1.871.945-1.328-.844-2.59-1.703-4.027-2.527zm-5.07 1.086c.391.906 2.359 1.707 3.035 2.598.891.754 1.984 1.496 2.523 2.27 2.66 3.012-.559-.176-2.609-1.246-1.055-.5-1.262-1.066-1.707-1.602-.684-.27-1.047-.84-.82-.906-1.477.258 1.039 1.098 1.016 1.633.59.637 1.961 1.207 2.242 1.863-1.055-.453-1.406-1.051-2.086-1.566-.371-.391-1.32-1.16-1.684-1.281 1.094.875 1.785 1.789 3.172 2.633 2.617 2.492.852.848-1.406-.418-.621-.461-.664-1.133-1.844-1.449 3.445 3.324 11.387 9.082 4.66 2.871.328.16 15.246 7.414 3.629-.293-1.23-.953-2.336-1.922-3.523-2.879-.957-.047.879.805 1.047 1.113 8.668 5.98 5.316 5.047-1.094.234-1.492-1.195-2.895-2.398-4.551-3.574zm1.176.973c-.609-.07.195-.211 0 0zm3.137 1.184c-.406-.012.207-.133 0 0zm.883.617c.367.234-.484-.184 0 0zm3.48 2.848c-.816-.133.094-.395 0 0zm-3.879-.473c-.027.18-.25-.16 0 0zm4.777-3.051c1.973 1.621 4.391 3.184 6.719 4.758.332.223 1.762 1.047.938.41-2.18-1.555-4.301-3.121-6.707-4.641-.32-.172-.543-.383-.949-.527zm-9.73-1.469c-.387.32.668.07 0 0zm13.164 3.078c-.109.223 1.629 1.238.977.602-.25-.211-.531-.434-.977-.602zm-13.508-1.656c.156.34.063-.219 0 0zm-.113.543c-.203.672 1.176 1.422 1.203 2.113 5.18 2.133 2.383 1.117-.574-1.426-.207-.23-.367-.461-.629-.687zm.277.121c-.09.445 1.215.41 0 0zm.762.664c-.207.18.477.113 0 0zm.469.43c.367.262-.102-.187 0 0zm2.578.723c.129.176.168-.117 0 0zm-1.781-.098c.383.277-.129-.187 0 0zm.227.258c-.062.215.48.078 0 0zm.238.188c-.125.199.406.082 0 0zm.238.203c-.078.195.648.164 0 0zm0 0" class="B E F G"/></g><mask id="Z"><g class="C"><path d="M0 0h100v100H0z" class="B D H"/></g></mask><clipPath id="a"><path d="M0 0h100v100H0z"/></clipPath><g id="b" clip-path="url(#a)"><path d="M29.348 53.715c-.027.68.398 1.992.574 2.957.508 1.434.414 2.098.934 3.543.188.582-.223.355-.473-.465-.766-.996.113 1.207.078 1.578l1.266 5.621c.027-.711-.109-1.68-.305-2.719-.238-.652-.363-1.797.105-.922.168 1.016.5 2.246.793 3.406.129.84.293 2.008.895 3.316-.059-.918.152-1.473-.359-3.027l-1.996-7.918-.949-3.75-.562-1.621zm1.563 7.457c.566 1.008.258 1.625-.109.301-.082-.262-.375-1.48.109-.301zm1.695 5.977c-.184-.16-.051-.18.023-.016zm-3.906-14c-.164-.02.223 1.531.383 1.414-.031-.336-.004-.66-.383-1.414zm1.324 5.336c-.117-.777-.324-1.695-.707-2.809.039.504.23 1.746.707 2.809zm-4.996-9.578c-.309.367.547 2.43.504 3.195.5 1.328.086-.352.039-.648l-.543-2.547zm4.063 7.617c.117 1.152.613 2.82.879 4.18.598 1.227-.02-.75-.043-1.012l-.836-3.168zm-2.305-4.914c.23 1.715.805 3.906 1.238 5.902.086.234 2.414 10.348 1.668 6.203l-2.906-12.105zm1.09 1.664c-.184.281.309 1.555.527 2.41l.66 1.965-1.187-4.375zm-3.492-4.312c-.195.613.59 2.629.566 3.496.172 1.02.469 2.223.422 2.93.152 3.266-.246-.559-.953-2.727-.387-1.098-.242-1.445-.254-2-.273-.699-.219-1.187-.055-1-.992-1.273.098 1.254-.168 1.383.047.715.586 2.125.445 2.559-.41-1.086-.336-1.574-.492-2.336-.035-.445-.234-1.527-.391-1.891.234 1.242.207 2.125.629 3.625.375 3.082.105 1.012-.629-1.398-.152-.695.141-.922-.406-2.082.469 4.066 2.441 12.91 1.398 5.047.113.34 5.492 15.957 2.27 3.219l-.723-4.016c-.539-.879.141 1.027.094 1.27 2.297 9.566.762 6.25-.754-.93l-1-5.148zm.238 1.344c-.328-.574.211.121 0 0zm1.289 3.191c-.234-.375.184.148 0 0zm.23.973c.105.402-.199-.492 0 0zm.715 3.969c-.422-.781.238-.023 0 0zm-2.066-3.668c-.098.027-.07-.27 0 0zm4.246 3.5c.398 2.246 1.09 4.887 1.723 7.449.09.363.547 1.898.359.969l-1.77-7.406c-.109-.34-.141-.602-.312-1.012zm-5.039-9.273c-.379-.262.359.629 0 0zm6.305 12.848c-.168-.035.379 1.832.293 1.063a4.58 4.58 0 0 0-.293-1.062zm-7.176-12.762c-.066.238.141-.004 0 0zm-.32.051c-.434.004.023 1.469-.285 1.684 2.051 5.316.879 2.484.332-.922-.016-.254 0-.461-.047-.762zm.105.285c-.262.043.52 1.219 0 0zm.137.879c-.207-.141.227.465 0 0zm.074.547c.094.406.031-.145 0 0zm1.18 2.551c-.008.168.152.121 0 0zm-1.004-1.652c.098.43.012-.168 0 0zm.012.281c-.137.004.246.457 0 0zm.055.27c-.168-.059.199.391 0 0zm.047.273c-.141-.016.305.637 0 0zm0 0" class="B E F G"/></g><mask id="c"><g class="C"><path d="M0 0h100v100H0z" class="B D I"/></g></mask><clipPath id="d"><path d="M0 0h100v100H0z"/></clipPath><g id="e" clip-path="url(#d)"><path d="M25.969 50.695c.305.047.828.262 1.23.383.566.25.871.277 1.441.527.234.094.188-.031-.141-.16-.34-.281.516.125.688.145l2.316.777c-.32-.051-.73-.16-1.16-.297-.258-.113-.746-.234-.422-.043l1.398.477c.355.102.848.234 1.348.5-.398-.09-.672-.078-1.293-.336l-3.234-1.152-1.531-.547-.641-.273zm3.09 1c.371.23.684.195.148-.004-.105-.043-.605-.215-.148.004zm2.414.918c-.043-.059-.07-.027-.008.004zm-5.668-2.137c.012-.043.648.18.574.215-.145-.035-.289-.055-.574-.215zm2.184.773c-.328-.094-.707-.223-1.148-.41.219.051.742.199 1.148.41zm-3.57-2.078c.203-.051 1 .34 1.348.387.52.238-.168-.004-.293-.039l-1.055-.348zm2.828 1.676c.492.121 1.164.383 1.73.563.461.254-.332-.066-.441-.09l-1.289-.473zm-1.867-.996c.727.195 1.621.52 2.445.793.09.039 4.254 1.453 2.52.93l-4.965-1.723zm.59.418c.148-.027.648.203.996.332l.781.328-1.777-.66zm-1.441-1.262c.297-.004 1.086.363 1.473.426l1.238.344c1.422.297-.215-.109-1.078-.469-.434-.187-.609-.176-.852-.223-.273-.129-.496-.152-.434-.094-.43-.363.539.121.633.063.309.07.859.324 1.074.32-.426-.195-.652-.215-.969-.316a5.46 5.46 0 0 1-.785-.25c.52.16.914.223 1.52.453 1.313.34.434.105-.535-.277-.285-.094-.426-.035-.867-.273 1.738.445 5.383 1.664 2.047.77.137.055 6.324 2.707 1.121.852l-1.68-.508c-.316-.211.438.121.547.125 3.926 1.363 2.664.695-.309-.27l-2.145-.672zm.563.168c-.207-.133.027.066 0 0zm1.238.594c-.133-.094.043.059 0 0zm.402.137c.164.059-.191-.09 0 0zm1.66.5c-.293-.172-.043.063 0 0zm-1.348-.832c.027-.023-.109-.039 0 0zm.98 1.398l3.066 1.039c.148.055.766.297.379.172l-3.039-1.051-.406-.16zm-3.426-2.062c-.066-.121.227.145 0 0zm4.84 2.676c.004-.047.758.246.43.164-.121-.039-.254-.078-.43-.164zm-4.687-2.902c.113.004-.023.039 0 0zm.063-.078c.063-.117.648.121.785.055 2.078.961.98.43-.453.016l-.332-.07zm.113.051c.055-.066.469.23 0 0zm.371.105c-.035-.066.176.094 0 0zm.23.063c.168.055-.066-.004 0 0zm.973.512c.074.012.031.051 0 0zm-.598-.395c.176.059-.074-.012 0 0zm.121.023c.02-.035.172.102 0 0zm.113.035c-.004-.047.148.086 0 0zm.117.035c.008-.039.238.129 0 0zm0 0" class="B E F G"/></g><mask id="f"><g class="C"><path d="M0 0h100v100H0z" class="B D I"/></g></mask><clipPath id="g"><path d="M0 0h100v100H0z"/></clipPath><g id="h" clip-path="url(#g)"><path d="M39.086 58.301c.766-.652 2.586-1.375 3.824-2.059 2.023-.73 2.719-1.449 4.762-2.18.809-.32.238-.582-.887-.121-1.715.039 1.469-.973 1.867-1.359l7.395-3.711c-.797.688-2.008 1.418-3.348 2.148-.922.328-2.328 1.234-.973.969 1.285-.738 2.945-1.488 4.492-2.219 1.066-.625 2.523-1.512 4.477-2.02-1.098.773-1.57 1.527-3.742 2.367-3.148 1.652-6.766 3.316-10.574 4.984l-5.012 2.355c-.809.277-1.465.566-2.281.844zm9.727-5.055c1.578-.277 2.051-1.199.262-.402-.363.145-1.977.93-.262.402zm8.121-3.547c-.32-.062-.246.105-.004.039zm-18.98 8.379c-.145-.172 1.922-1.152 1.91-.863-.41.277-.758.605-1.91.863zm7.113-3.383c-.98.578-2.191 1.184-3.754 1.77.609-.422 2.18-1.34 3.754-1.77zm-14.734 3.066c.191-.687 3.199-1.602 4.043-2.355 1.898-.648-.34.422-.715.641-1.066.57-2.16 1.141-3.328 1.715zm11.785-2.336c1.41-.922 3.691-1.891 5.449-2.832 1.855-.441-.875.668-1.191.883-1.316.629-2.738 1.395-4.258 1.949zm-7.367 1.875c2.141-1.312 5.082-2.668 7.695-4.004.336-.117 13.68-6.738 8.363-3.789L34.75 57.301zm2.73-.285c.18-.469 2.012-1.074 3.156-1.605.684-.289 2.547-1.055 2.746-1.051l-5.902 2.656zm-7.566-.043c.555-.785 3.453-1.738 4.434-2.559 1.297-.742 2.898-1.508 3.672-2.211 3.859-2.824-.82.23-3.836 1.414-1.551.566-1.84 1.051-2.484 1.547-1.008.324-1.527.836-1.191.852-2.199.035 1.508-1.039 1.461-1.461.855-.602 2.875-1.277 3.266-1.84-1.551.527-2.055 1.059-3.047 1.578-.539.371-1.922 1.137-2.461 1.293 1.598-.875 2.594-1.715 4.629-2.609 3.813-2.402 1.238-.809-2.074.563-.91.465-.949 1.008-2.691 1.449 5.012-3.199 16.629-9.062 6.832-3.035.48-.18 22.414-8.355 5.398-.355-1.797.961-3.41 1.906-5.145 2.863-1.418.191 1.281-.785 1.523-1.059 12.691-6.152 7.738-4.867-1.633-.008-2.184 1.191-4.227 2.375-6.652 3.578zm1.719-.965c-.906.152.297.137 0 0zm4.625-1.449c-.605.074.309.074 0 0zm1.289-.633c.539-.246-.715.227 0 0zm5.086-2.824c-1.215.238.148.297 0 0zm-5.754 1c-.043-.137-.363.168 0 0zm7.199 1.656c2.875-1.605 6.418-3.242 9.828-4.867.488-.23 2.59-1.117 1.379-.477-3.187 1.586-6.289 3.176-9.812 4.773-.477.188-.797.391-1.395.57zm-14.414 2.738c-.586-.191.992-.164 0 0zm19.461-4.57c-.168-.16 2.383-1.25 1.434-.637a6.61 6.61 0 0 1-1.434.637zm-20.016 3.496c.219-.297.098.164 0 0zm-.184-.414c-.324-.504 1.699-1.324 1.715-1.875 7.633-2.535 3.512-1.277-.805 1.227-.301.215-.531.426-.91.648zm.406-.145c-.148-.336 1.789-.52 0 0zm1.109-.648c-.312-.109.703-.168 0 0zm.684-.418c.539-.266-.145.164 0 0zm3.809-.988c.188-.164.254.063 0 0zm-2.648.363c.566-.281-.184.172 0 0zm.332-.242c-.098-.16.711-.141 0 0zm.352-.187c-.191-.141.598-.133 0 0zm.348-.199c-.125-.141.957-.234 0 0zm0 0" class="B E F G"/></g><mask id="i"><g class="C"><path d="M0 0h100v100H0z" class="B D H"/></g></mask><clipPath id="j"><path d="M0 0h100v100H0z"/></clipPath><g id="k" clip-path="url(#j)"><path d="M33.367 28.656c.863.004 2.516-.414 3.73-.602 1.801-.5 2.648-.434 4.465-.941.73-.184.453.195-.578.445-1.242.715 1.523-.137 1.996-.117l7.086-1.293c-.902-.008-2.125.141-3.434.348-.82.23-2.266.375-1.168-.074l4.289-.805c1.063-.141 2.539-.316 4.18-.898-1.16.078-1.867-.098-3.824.406-3.051.516-6.449 1.227-9.98 2.02l-4.723.957c-.711.207-1.32.344-2.039.555zm9.406-1.617c1.262-.539 2.047-.273.383.09-.328.082-1.863.379-.383-.09zm7.527-1.691c-.199.168-.23.051-.023-.02zm-17.637 3.91c-.02.145 1.934-.246 1.785-.387-.426.039-.836.02-1.785.387zm6.727-1.344c-.98.129-2.141.34-3.543.715.645-.051 2.211-.258 3.543-.715zm-12.012 4.777c.477.266 3.066-.562 4.035-.543 1.672-.488-.449-.07-.82-.02l-3.215.563zm9.551-3.883c1.457-.137 3.559-.625 5.27-.906 1.543-.57-.949.039-1.277.066-1.246.246-2.637.473-3.992.84zm-6.168 2.219c2.164-.258 4.926-.832 7.441-1.277.297-.086 13.047-2.465 7.816-1.676l-15.258 2.953zm2.086-1.031c.355.16 1.957-.32 3.035-.543.629-.145 2.332-.559 2.473-.645l-5.508 1.188zm-5.379 3.273c.777.16 3.313-.602 4.41-.605 1.289-.184 2.805-.484 3.699-.461 4.133-.227-.699.238-3.43.934-1.383.379-1.824.258-2.523.285-.879.266-1.5.23-1.266.078-1.59.93 1.582-.121 1.75.113.906-.062 2.676-.586 3.234-.469-1.367.398-1.984.344-2.945.508-.566.043-1.93.25-2.387.402 1.566-.246 2.684-.246 4.57-.668 3.895-.418 1.281-.121-1.75.609-.879.152-1.172-.105-2.629.422 5.137-.535 16.285-2.555 6.355-1.398.43-.117 20.074-5.398 4.027-2.141l-5.07.762c-1.102.512 1.297-.156 1.602-.121 12.063-2.332 7.898-.855-1.16.707l-6.488 1.043zm1.695-.25c-.719.313.145-.195 0 0zm4.008-1.254c-.469.227.184-.168 0 0zm1.227-.23c.504-.105-.617.191 0 0zm5.008-.754c-.98.402-.039-.215 0 0zm-4.594 1.965c.035.09-.34.07 0 0zm4.332-3.934c2.832-.422 6.16-1.113 9.387-1.758.461-.09 2.391-.543 1.215-.348l-9.328 1.797c-.43.109-.762.145-1.273.309zM27.52 33.621c-.324.348.789-.344 0 0zm16.121-6.047c-.043.152 2.309-.391 1.332-.297-.363.055-.762.117-1.332.297zm-15.992 6.828c.301.055-.008-.125 0 0zm.07.289c.016.395 1.859-.059 2.141.215 6.684-1.996 3.125-.863-1.176-.277-.32.02-.586.012-.965.063zm.363-.102c.059.234 1.527-.504 0 0zm1.105-.148c-.168.191.582-.219 0 0zm.691-.082c.516-.098-.184-.023 0 0zm3.203-1.133c.211 0 .148-.145 0 0zm-2.07.949c.543-.098-.215-.004 0 0zm.355-.02c.008.125.578-.234 0 0zm.344-.055c-.07.152.488-.187 0 0zm.344-.047c-.02.125.797-.293 0 0zm0 0" class="B E F G"/></g><mask id="l"><g class="C"><path d="M0 0h100v100H0z" class="B D H"/></g></mask><clipPath id="m"><path d="M0 0h100v100H0z"/></clipPath><g id="n" clip-path="url(#m)"><path d="M51.438 24.367c.703.453 2.32.969 3.434 1.449 1.793.527 2.441 1.02 4.25 1.547.719.23.25.395-.75.063-1.473-.059 1.332.68 1.707.945l6.621 2.621c-.734-.477-1.828-.988-3.031-1.5-.816-.238-2.094-.867-.91-.668l4.023 1.57c.957.438 2.277 1.059 3.988 1.434-.996-.535-1.461-1.047-3.387-1.652-2.828-1.164-6.055-2.348-9.449-3.531l-4.477-1.672c-.715-.199-1.301-.402-2.02-.605zm8.723 3.563c1.379.215 1.852.84.258.277-.32-.105-1.766-.66-.258-.277zm7.238 2.527c-.27.035-.223-.078-.008-.027zM50.48 24.496c-.109.109 1.738.805 1.703.609-.371-.191-.695-.418-1.703-.609zm6.359 2.395c-.887-.406-1.969-.832-3.355-1.254.559.293 1.973.938 3.355 1.254zm-12.867-2.332c.219.465 2.867 1.133 3.648 1.652 1.676.469-.324-.289-.66-.441l-2.988-1.211zm10.281 1.789c1.281.641 3.313 1.332 4.891 1.992 1.625.332-.801-.461-1.09-.609-1.176-.445-2.453-.984-3.801-1.383zm-6.457-1.395c1.938.918 4.563 1.879 6.906 2.824.293.082 12.242 4.762 7.457 2.688l-14.363-5.512zm2.359.242c.191.316 1.809.754 2.832 1.133.605.207 2.262.754 2.438.754l-5.27-1.887zm-6.48-.113c.535.531 3.094 1.227 3.996 1.793 1.172.52 2.602 1.063 3.32 1.547 3.527 1.961-.723-.172-3.398-1.016-1.375-.41-1.66-.738-2.25-1.082-.887-.238-1.371-.59-1.086-.594-1.887-.062 1.375.723 1.363 1.004.781.418 2.566.91 2.945 1.293-1.371-.383-1.844-.746-2.734-1.113-.488-.258-1.738-.797-2.207-.91 1.434.613 2.352 1.195 4.164 1.828 3.453 1.68 1.125.566-1.82-.41-.816-.332-.891-.691-2.418-1.023 4.543 2.234 14.953 6.371 6.09 2.16.426.129 19.859 6.012 4.656.34l-4.633-2.012c-1.23-.152 1.16.551 1.387.734 11.355 4.355 7.008 3.402-1.398-.023l-5.977-2.516zm1.547.676c-.785-.121.246-.086 0 0zm4.078 1.055c-.527-.059.258-.043 0 0zm1.152.449c.48.176-.629-.164 0 0zm4.578 1.984c-1.059-.184.105-.195 0 0zm-5.012-.781c-.027.094-.32-.117 0 0zm6.043-.965c2.59 1.125 5.754 2.285 8.801 3.438.438.164 2.305.797 1.219.344l-8.781-3.375c-.418-.133-.711-.277-1.238-.406zm-12.566-2.105c-.484.117.867.129 0 0zm17.035 3.426c-.133.102 2.141.879 1.281.449-.332-.145-.699-.301-1.281-.449zm-17.426-2.719c.211.203.07-.109 0 0zm-.125.273c-.238.328 1.559.914 1.617 1.285 6.734 1.84 3.105.918-.789-.836-.273-.148-.484-.293-.828-.449zm.359.102c-.102.227 1.574.383 0 0zm1 .457c-.258.066.617.125 0 0zm.621.293c.48.188-.137-.113 0 0zm3.34.734c.172.109.211-.039 0 0zm-2.297-.297c.504.199-.172-.117 0 0zm.301.168c-.074.105.621.109 0 0zm.316.133c-.156.09.52.098 0 0zm.313.141c-.094.094.84.176 0 0zm0 0" class="B E F G"/></g><mask id="o"><g class="C"><path d="M0 0h100v100H0z" class="B D I"/></g></mask><clipPath id="p"><path d="M0 0h100v100H0z"/></clipPath><g id="q" clip-path="url(#p)"><path d="M27.418 37.133c-.141.492-.711 1.391-1.043 2.066-.656.977-.746 1.465-1.41 2.449-.254.398.063.273.41-.289.719-.641-.348.855-.41 1.125l-2.094 3.906c.145-.512.453-1.191.816-1.918.297-.445.641-1.254.141-.668-.34.711-.832 1.559-1.285 2.363-.277.59-.645 1.414-1.332 2.293.246-.652.238-1.066.922-2.137l3.09-5.484 1.465-2.598.73-1.109zm-2.707 5.195c-.594.672-.535 1.141.004.227.113-.18.578-1.023-.004-.227zm-2.453 4.125c.156-.098.074-.125-.008-.016zm5.707-9.664c.109 0-.492 1.074-.57.977.098-.238.152-.473.57-.977zm-2.07 3.699a15.16 15.16 0 0 1 1.098-1.949 9.33 9.33 0 0 1-1.098 1.949zm5.398-6.398c.113.293-.91 1.688-1.055 2.242-.625.906.023-.262.121-.469l.934-1.773zm-4.352 5.078c-.34.816-1.035 1.965-1.516 2.914-.664.824.18-.535.258-.723l1.258-2.191zm2.602-3.305c-.539 1.207-1.406 2.723-2.141 4.113-.109.156-3.914 7.188-2.484 4.285l4.625-8.398zm-1.078 1.09c.055.219-.551 1.086-.891 1.676l-.871 1.348 1.762-3.023zm3.227-2.762c-.016.453-.977 1.824-1.16 2.449-.344.715-.809 1.551-.941 2.059-.84 2.324.285-.375 1.234-1.863.5-.75.484-1.016.621-1.41.336-.473.41-.828.262-.711.93-.82-.348.887-.207 1.004-.191.508-.859 1.469-.867 1.793.512-.738.574-1.094.848-1.625.125-.316.5-1.074.684-1.32-.434.867-.621 1.504-1.234 2.539-.941 2.172-.297.715.727-.941.254-.488.117-.676.734-1.457-1.227 2.871-4.512 9.02-2.047 3.488-.156.23-7.172 10.918-2.195 2.094l1.379-2.809c.547-.582-.324.723-.348.898-3.66 6.641-1.918 4.406.695-.598l1.816-3.59zm-.457.938c.34-.379-.164.066 0 0zm-1.559 2.168c.238-.25-.152.09 0 0zm-.367.676c-.16.277.238-.336 0 0zm-1.367 2.773c.449-.52-.145-.039 0 0zm2.164-2.434c.059.027.105-.187 0 0zm-3.527 2.113l-2.805 5.176c-.141.25-.785 1.309-.449.66l2.824-5.141c.148-.234.227-.418.43-.695zm5.355-6.176c.305-.152-.375.418 0 0zm-6.984 8.617c.117-.008-.66 1.277-.43.734.098-.203.211-.426.43-.734zm7.523-8.477c-.012.176-.09-.016 0 0zm.195.066c.277.043-.352 1.051-.203 1.234-2.527 3.617-1.133 1.699-.004-.691.07-.18.105-.332.207-.543zm-.133.195c.156.055-.613.824 0 0zm-.289.617c.164-.082-.25.313 0 0zm-.172.387c-.156.281.012-.109 0 0zm-1.34 1.715c-.035.121-.129.074 0 0zm1.02-1.09c-.16.301.031-.121 0 0zm-.07.199c.086.016-.262.309 0 0zm-.098.191c.121-.027-.215.262 0 0zm-.09.191c.094 0-.34.426 0 0zm0 0" class="B E F G"/></g><mask id="r"><g class="C"><path d="M0 0h100v100H0z" class="B D H"/></g></mask><clipPath id="s"><path d="M0 0h100v100H0z"/></clipPath><g id="t" clip-path="url(#s)"><path d="M37.852 24.281c.828.125 2.516-.055 3.73-.066 1.855-.246 2.648-.059 4.52-.309.75-.078.391.262-.66.363-1.371.543 1.496.082 1.945.172l7.125-.285c-.867-.133-2.074-.16-3.387-.141-.84.113-2.266.051-1.105-.242l4.32-.191c1.055.008 2.516.043 4.234-.305-1.133-.086-1.766-.367-3.773-.141-3.059.082-6.496.305-10.082.594l-4.773.285c-.734.105-1.352.156-2.094.266zm9.434-.273c1.344-.359 2.035.016.348.145-.34.035-1.887.113-.348-.145zm7.645-.621c-.23.141-.234.02-.016-.023zm-17.898 1.395c-.055.145 1.918.035 1.805-.129-.418-.023-.805-.102-1.805.129zm6.789-.383c-.973-.012-2.137.035-3.578.211.629.043 2.188.059 3.578-.211zm-12.703 3.074c.391.336 3.082-.125 4.008.035 1.723-.25-.414-.137-.785-.137l-3.223.102zm10.121-2.527c1.434.07 3.57-.121 5.285-.152 1.621-.355-.922-.102-1.246-.117-1.258.07-2.645.094-4.039.27zm-6.469 1.34c2.145.055 4.938-.125 7.465-.215.305-.043 13.137-.598 7.918-.559l-15.383.773zm2.254-.734c.305.215 1.961-.039 3.051-.109.641-.055 2.375-.227 2.535-.293l-5.586.402zm-5.965 2.516c.711.273 3.332-.129 4.387.023 1.285 0 2.813-.082 3.668.07 4.027.367-.73.137-3.523.445-1.418.184-1.816-.004-2.496-.078-.91.145-1.496.02-1.234-.102-1.75.703 1.551.105 1.656.363.883.066 2.715-.203 3.219-.008-1.41.207-1.988.063-2.953.09-.555-.039-1.914-.023-2.391.063 1.566-.023 2.641.137 4.559-.016 3.844.137 1.258.063-1.832.359-.883.027-1.102-.27-2.629.047 5.066.203 16.273-.227 6.449-.492.438-.055 20.602-2.539 4.387-1.57l-5.055.035c-1.184.355 1.285.031 1.57.109 12.156-.613 7.797.273-1.289.543l-6.492.117zm1.691-.008c-.77.211.188-.176 0 0zm4.156-.684c-.504.16.219-.145 0 0zm1.238-.055c.508-.035-.645.102 0 0zm4.996-.039c-1.043.262.016-.223 0 0zm-4.895 1.313c.012.098-.344.023 0 0zm5.117-3.324c2.828-.02 6.195-.238 9.449-.418.469-.027 2.434-.207 1.258-.18l-9.406.469c-.441.047-.766.035-1.301.129zm-12.34 3.156c-.395.305.844-.23 0 0zm16.965-3.758c-.082.148 2.313-.062 1.352-.105a7.57 7.57 0 0 0-1.352.105zM30.957 29.23c.277.098.02-.129 0 0zm-.004.301c-.082.398 1.801.207 2.004.52 6.91-1.043 3.215-.418-1.062-.445-.312-.023-.566-.07-.941-.074zm.371-.051c0 .242 1.594-.289 0 0zm1.102.012c-.211.164.613-.137 0 0zm.684.016c.516-.023-.172-.051 0 0zm3.352-.68c.203.031.18-.121 0 0zm-2.219.66c.547-.023-.203-.039 0 0zm.348.031c-.023.125.609-.156 0 0zm.34-.008c-.102.145.52-.121 0 0zm.344 0c-.047.125.84-.18 0 0zm0 0" class="B E F G"/></g><radialGradient id="u" cx="-1151.398" cy="206.211" fx="-1151.398" fy="206.211" r="51.982" gradientTransform="matrix(0.424638,-0.214094,0.030743,0.0599091,517.113234,-234.94558)" xlink:href="#v"><stop offset="0" stop-color="rgb(98.039216%,87.45098%,60.784314%)"/><stop offset="1" stop-color="rgb(98.039216%,87.45098%,60.784314%)" stop-opacity="0"/></radialGradient><linearGradient id="v" gradientUnits="userSpaceOnUse"/></defs><path d="M74.859 21.797c2.039 40.168-35.145 55.887-55.039 51.02 16.184 22.059 43.906 19.824 58.285 5.41 14.238-14.277 16.625-39.555-3.246-56.43zm0 0" fill="rgb(49.411765%,51.764706%,50.588235%)"/><path d="M48.137 10.773c-16.035-.062-31.164 11.352-35.746 26.531-1.914 5.957-2.02 12.418-1.027 18.555 1.543 8.043 5.785 15.543 12.039 20.918 10.617 10.086 27.469 12.566 40.82 6.707 12.586-5.297 21.82-17.664 22.941-31.215 1.582-14.734-6.484-29.91-19.648-36.934-5.898-3.242-12.633-4.859-19.379-4.562zm0 0" fill="url(#A)"/><path d="M73.445 19.293c2.039 40.328-39.887 49.004-59.777 44.117 10.023 23.461 42.621 33.309 63.023 12.535 14.156-14.414 16.625-39.711-3.246-56.652zm0 0" fill="url(#B)"/><path d="M13.668 63.41c-1.145-2.246-1.68-4.902-2.078-7.148l5.992 1.004c.594 3.098 2.254 4.965 3.227 7.211-1.93.16-4.527-.371-7.141-1.066zm0 0" fill="url(#C)" class="J"/><path d="M81.711 48.074c0-17.617-14.621-31.902-32.656-31.902s-32.66 14.285-32.66 31.902S31.016 79.98 49.055 79.98s32.656-14.285 32.656-31.906zm0 0" fill="url(#D)"/><path d="M78.84 48.391c0-15.559-13.102-28.176-29.258-28.176S20.324 32.832 20.324 48.391s13.098 28.18 29.258 28.18S78.84 63.953 78.84 48.391zm0 0" fill="none" stroke="rgb(52.156863%,36.470588%,11.372549%)" stroke-width="1.011" class="K L"/><g class="J"><path d="M73.617 27.023c-5.027-4.496-8.84-8.863-20.797-10.559l4.191-4.934c3.289.84 8.059 1.207 16.52 7.816zm0 0" fill="url(#E)"/><path d="M18.172 37.621c2.977-6.027 4.875-11.492 15.336-17.48l-5.746-3.027c-2.738 1.992-7.023 4.094-12.391 13.352zm0 0" fill="url(#F)"/></g><path d="M81.957 48.188c0-17.586-14.652-31.844-32.723-31.844S16.508 30.602 16.508 48.188 31.16 80.031 49.234 80.031s32.723-14.258 32.723-31.844zm0 0" fill="none" stroke="rgb(57.647059%,33.72549%,0%)" stroke-width=".513" class="K L"/><use xlink:href="#J" mask="url(#H)"/><use xlink:href="#M" mask="url(#K)"/><use xlink:href="#P" mask="url(#N)"/><use xlink:href="#S" mask="url(#Q)"/><use xlink:href="#V" mask="url(#T)"/><use xlink:href="#Y" mask="url(#W)"/><use xlink:href="#b" mask="url(#Z)"/><use xlink:href="#e" mask="url(#c)"/><use xlink:href="#h" mask="url(#f)"/><use xlink:href="#k" mask="url(#i)"/><use xlink:href="#n" mask="url(#l)"/><use xlink:href="#q" mask="url(#o)"/><use xlink:href="#t" mask="url(#r)"/><path d="M56.395 34.98c1.137-9.145-5.531-17.48-14.891-18.621S23.637 21.707 22.5 30.852s5.535 17.48 14.895 18.621 17.867-5.348 19-14.492zm0 0" fill="url(#u)"/><path d="M50.492 66.574c-1.777.539-3.656-.953-1.062-1.773 4.348-1.312 8.969.207 11.262-1.102 1.324-4.102 2.867-13.301 1.293-12.02-8.586.816-13.609-.711-18.25 2.813-2.852-.07-2.789-4.641.18-4.453 5.688-2.512 15.098-1.852 19.148-3.406.273-.887-.172-1.398.52-1.68.488-.195 1.254-.066 1.738.09.449.145.063 1.523.203 1.766 3.293 1.555 11.836-2.945 11.48-.637-.863 2.074-1.656 3.289-3.152 5.066-.07 1.039-5.52.395-8.492.434-.984 5.277-.543 11.43-2.613 14.43-2.898 1.359-9.609.387-12.254.473zm-14.609-2.238c-.461-3.863.676-8.855-.078-10.66-.93.016-2.164-.262-2.664.191-2.141 1.945-.687 7.148-1.594 9.734-.387 1.879-4.27 3.199-3.488.305.953-3.652 2.555-7.887.777-11.086-.766-.543-1.004-1.547.145-1.727 2.352-.363 7.23.086 7.355-1.168.324-3.242.785-6.016.254-5.805-1.809-.285-4.969 1.199-7.395 1.426-2.707.375-2.957-2.52-.73-3.516 2.234-.961 2.609-3.328 2.73-5.453-.066-1.301.613-5.379 2.359-3.973 1.121 2.145-.516 4.605-.598 7.293.871-.133 3.477-.02 4.328-.531.543-2.539.137-5.797 1.895-7.645 2.887-1.406 2.578 2.391 1.773 4.152-2.117 9.285-1.32 19.813-1.68 28.313-.766 2.508-2.312 2.898-3.391.148zm10.727-4.586c-2.828-.434-2.398-4.645.453-4.27 3.145-.125 6.297-.301 9.441-.152 2.184 1.102-1.828 2.633-2.914 2.984-1.758.988-5.223 1.957-6.98 1.438zm-1.73-12.398c-1.75-.266-4.996-5.867-1.375-4.457 2.238.859 4.699-.898 6.688-1.785-.398-.937.234-2.91-.262-3.484-.23-.27-1.793.582-2.281.969-1.992.809-4.445-1.023-4.066-3.121-.59-2.871 2.027-1.383 3.246-1.141 5.699-1.82 12.355-3.699 17.863-4.098 1.828-1.109 4.445 1.148 2.68 2.848-1.859 2.059 1.328 4.25.223 6.352-6.684 2.406-14.109 4.344-20.117 7.625-.801.383-1.73.469-2.598.293zm11.43-8.242c.266-.793.438-2.766 0-3.258-.684-.035-2.934.457-3.395.895-.187.266-.918 3.16.004 3.59.715.18 2.93-.723 3.391-1.227zm7.742-2.184c.074-.844-.484-3.105-.367-3.617-1.289-.012-4.695.844-5.223 1.512.262.777.242 2.848.258 3.676.914.207 4.598-1.344 5.332-1.57zm0 0" fill="rgb(100%,100%,100%)"/><path d="M49.902 66.297c-1.781.539-3.66-.953-1.066-1.773 4.348-1.316 8.969.207 11.266-1.105 1.324-4.102 2.863-13.301 1.289-12.016-8.582.816-13.605-.711-18.246 2.813-2.852-.07-2.789-4.641.18-4.457 5.688-2.508 15.098-1.848 19.145-3.402.277-.887-.172-1.398.523-1.68.488-.199 1.25-.066 1.738.09.445.145.063 1.52.203 1.766 3.289 1.555 11.836-2.945 11.477-.637-.863 2.07-1.656 3.289-3.152 5.066-.066 1.035-5.516.391-8.492.43-.98 5.281-.543 11.43-2.613 14.43-2.895 1.363-9.605.387-12.25.477zm-14.609-2.238c-.461-3.863.676-8.855-.078-10.66-.934.012-2.168-.262-2.664.188-2.145 1.945-.687 7.152-1.594 9.734-.391 1.883-4.27 3.199-3.492.309.953-3.652 2.559-7.891.777-11.086-.766-.547-1-1.551.145-1.727 2.352-.363 7.234.086 7.359-1.168.324-3.246.785-6.02.25-5.805-1.809-.289-4.965 1.199-7.395 1.426-2.703.375-2.953-2.52-.727-3.516 2.23-.965 2.605-3.328 2.73-5.453-.066-1.301.613-5.379 2.355-3.977 1.121 2.148-.512 4.605-.594 7.297.867-.137 3.473-.023 4.324-.531.547-2.539.137-5.801 1.895-7.648 2.887-1.406 2.578 2.395 1.773 4.156-2.113 9.285-1.32 19.813-1.68 28.313-.766 2.508-2.312 2.898-3.387.148zm10.727-4.586c-2.832-.437-2.398-4.645.453-4.27 3.141-.125 6.293-.301 9.438-.152 2.188 1.098-1.824 2.633-2.91 2.984-1.762.984-5.223 1.957-6.98 1.438zm-1.734-12.398c-1.75-.27-4.996-5.871-1.371-4.457 2.238.859 4.695-.898 6.688-1.789-.402-.937.234-2.91-.262-3.484-.23-.266-1.797.586-2.281.973-1.996.805-4.449-1.023-4.07-3.121-.586-2.875 2.031-1.387 3.246-1.141 5.703-1.82 12.355-3.703 17.867-4.102 1.828-1.105 4.445 1.148 2.68 2.852-1.859 2.055 1.328 4.25.219 6.348-6.684 2.406-14.109 4.348-20.113 7.629-.805.379-1.73.465-2.602.293zm11.43-8.242c.266-.797.438-2.77 0-3.258-.68-.035-2.934.457-3.391.895-.191.262-.918 3.156.004 3.59.711.18 2.93-.723 3.387-1.227zm7.742-2.187c.078-.84-.484-3.102-.363-3.617-1.293-.008-4.695.848-5.223 1.516.262.777.242 2.848.258 3.676.91.207 4.594-1.348 5.328-1.574zm0 0" fill="rgb(11.764706%,11.764706%,10.196078%)"/></svg>