<svg xmlns="http://www.w3.org/2000/svg" xmlns:xlink="http://www.w3.org/1999/xlink" width="133.333" height="133.333" viewBox="0 0 100 100" xmlns:v="https://vecta.io/nano"><style><![CDATA[.B{stroke:none}.C{filter:url(#G)}.D{fill:rgb(0%,0%,0%)}.E{fill-rule:nonzero}.F{fill:rgb(83.137255%,52.941176%,34.901961%)}.G{fill-opacity:1}.H{fill-opacity:.502}.I{fill-opacity:.749}.J{fill-rule:evenodd}.K{stroke-linejoin:round}.L{stroke-miterlimit:5.1}]]></style><defs><linearGradient id="A" x1="17.347" y1="33.495" x2="23.056" y2="25.351" xlink:href="#v"><stop offset="0" stop-color="rgb(79.215686%,50.980392%,19.215686%)"/><stop offset="1" stop-color="rgb(98.431373%,59.607843%,30.196078%)"/></linearGradient><linearGradient id="B" x1="39.772" y1="49.849" x2="26.064" y2="42.529" xlink:href="#v"><stop offset="0" stop-color="rgb(32.156863%,20%,12.941176%)"/><stop offset="1" stop-color="rgb(83.137255%,48.235294%,23.529412%)"/></linearGradient><linearGradient id="C" x1="14.959" y1="58.031" x2="14.364" y2="64.381" xlink:href="#v"><stop offset="0" stop-color="rgb(79.215686%,50.980392%,19.215686%)"/><stop offset="1" stop-color="rgb(78.039216%,45.490196%,22.352941%)"/></linearGradient><radialGradient id="D" cx="-844.406" cy="122.5" fx="-844.406" fy="122.5" r="31.495" gradientTransform="matrix(-0.254224,1.009283,-1.57316,-0.389323,34.570266,953.683365)" xlink:href="#v"><stop offset="0" stop-color="rgb(83.137255%,52.941176%,30.980392%)"/><stop offset="1" stop-color="rgb(92.156863%,66.27451%,47.843137%)"/></radialGradient><linearGradient id="E" x1="58.006" y1="19.866" x2="73.448" y2="19.199" xlink:href="#v"><stop offset="0" stop-color="rgb(98.431373%,59.607843%,30.196078%)"/><stop offset="1" stop-color="rgb(32.156863%,20%,12.941176%)"/></linearGradient><linearGradient id="F" x1="-822.294" y1="80.163" x2="-809.156" y2="86.432" gradientTransform="matrix(-0.962269,0.382933,0.386327,0.953813,-796.014858,260.513876)" xlink:href="#v"><stop offset="0" stop-color="rgb(98.431373%,59.607843%,30.196078%)"/><stop offset="1" stop-color="rgb(79.215686%,50.980392%,19.215686%)"/></linearGradient><filter id="G" x="0%" y="0%" width="100%" height="100%"><feColorMatrix in="SourceGraphic" values="0 0 0 0 1 0 0 0 0 1 0 0 0 0 1 0 0 0 1 0"/></filter><mask id="H"><g class="C"><path d="M0 0h100v100H0z" class="B D I"/></g></mask><clipPath id="I"><path d="M0 0h100v100H0z"/></clipPath><g id="J" clip-path="url(#I)"><path d="M40.664 66.137c.73.395 2.352.766 3.48 1.148 1.793.367 2.473.809 4.285 1.176.715.164.281.375-.723.133-1.434.078 1.363.563 1.754.797l6.695 2.043c-.762-.414-1.879-.832-3.098-1.238-.816-.164-2.121-.687-.953-.59 1.176.418 2.668.816 4.063 1.215.977.352 2.32.859 4.02 1.082-1.023-.449-1.531-.926-3.461-1.359l-9.527-2.703-4.516-1.277-2.02-.426zm8.832 2.801c1.355.09 1.883.68.277.254-.324-.074-1.781-.504-.277-.254zm7.277 1.887c-.258.063-.223-.059-.008-.027zM39.75 66.355c-.094.121 1.77.656 1.715.461-.379-.156-.715-.359-1.715-.461zm6.418 1.836a25.23 25.23 0 0 0-3.383-.957c.57.242 2.008.766 3.383.957zm-12.711-1.168c.266.453 2.898.883 3.711 1.336 1.676.32-.344-.262-.687-.387l-3.023-.949zm10.148.855c1.309.535 3.352 1.047 4.949 1.57 1.609.184-.824-.395-1.121-.52l-3.828-1.051zm-6.402-.809c1.973.75 4.621 1.48 6.992 2.219.293.055 12.367 3.688 7.512 2.031l-14.504-4.25zm2.313.023c.219.305 1.828.598 2.859.887l2.441.539-5.301-1.426zm-6.285.488c.574.488 3.125.953 4.059 1.445l3.383 1.258c3.625 1.66-.719-.102-3.398-.715-1.375-.285-1.687-.594-2.297-.887-.883-.156-1.391-.469-1.113-.5-1.836.113 1.406.605 1.426.891.801.352 2.582.684 2.992 1.039-1.371-.262-1.867-.586-2.766-.875-.504-.215-1.77-.645-2.238-.715 1.457.484 2.406.988 4.23 1.465 3.527 1.379 1.152.469-1.805-.25-.828-.258-.941-.617-2.453-.809 4.641 1.84 15.164 5.066 6.129 1.621.426.09 19.875 4.246 4.543-.09l-4.699-1.605c-1.207-.043 1.18.449 1.422.617 11.461 3.355 7.152 2.797-1.359.102l-6.055-1.992zm1.57.539c-.777-.047.227-.109 0 0zm4.059.691c-.516-.012.246-.066 0 0zm1.164.348c.484.133-.625-.109 0 0zm4.648 1.586c-1.047-.086.078-.207 0 0zm-4.934-.324c-.016.098-.328-.09 0 0zm5.742-1.543l8.895 2.668c.438.125 2.316.594 1.215.238l-8.863-2.605c-.422-.098-.719-.215-1.246-.301zm-12.391-.965c-.461.164.852.051 0 0zm16.859 1.891c-.117.117 2.164.691 1.289.336a7.29 7.29 0 0 0-1.289-.336zm-17.164-1.137c.227.184.059-.117 0 0zm-.094.289c-.191.355 1.609.781 1.707 1.152 6.723 1.238 3.105.641-.852-.773-.281-.125-.504-.254-.855-.379zm.363.07c-.074.234 1.563.242 0 0zm1.016.367c-.242.094.609.07 0 0zm.633.238c.484.148-.145-.102 0 0zm3.313.434c.18.098.203-.059 0 0zm-2.254-.082c.512.152-.18-.105 0 0zm.309.141c-.059.113.613.051 0 0zm.32.105c-.141.105.516.051 0 0zm.316.113c-.078.102.832.098 0 0zm0 0" class="B E F G"/></g><mask id="K"><g class="C"><path d="M0 0h100v100H0z" class="B D H"/></g></mask><clipPath id="L"><path d="M0 0h100v100H0z"/></clipPath><g id="M" clip-path="url(#L)"><path d="M61.727 48.168c-1.359 1.285-4.086 2.211-6.055 3.336-2.984.848-4.301 2.336-7.309 3.176-1.207.414-.664 1.375 1.031.754 2.168.766-2.441 1.758-3.18 2.539-3.898 1.906-8.113 3.715-11.547 5.766 1.422-1.355 3.391-2.617 5.516-3.809 1.359-.371 3.68-1.984 1.824-1.988-2.066 1.246-4.609 2.32-6.996 3.414-1.715 1.055-4.094 2.59-6.848 2.91 1.852-1.426 2.914-3.113 6.148-4.172 4.961-2.637 10.52-5.078 16.316-7.422 2.645-1.141 5.223-2.309 7.723-3.5 1.184-.305 2.184-.707 3.375-1.004zM46.43 56.199c-2.145-.09-3.309 2.031-.582.895.543-.184 3.051-1.383.582-.895zm-12.355 4.977c.363.32.375-.152.031-.102zm28.93-11.867c.07.508-3.121 1.977-2.922 1.242.684-.496 1.32-1.16 2.922-1.242zm-10.992 5.063a24.61 24.61 0 0 1 5.789-2.633c-1.023.77-3.555 2.332-5.789 2.633zm20.305-.41c-.672 1.668-4.996 2.488-6.52 3.992-2.773.699.688-.914 1.289-1.281 1.688-.922 3.414-1.832 5.23-2.711zm-16.168.035c-2.336 1.648-5.789 2.973-8.57 4.492-2.594.195 1.508-1.27 2.035-1.652 2.039-.945 4.289-2.184 6.535-2.84zm10.363-1.082c-3.492 2.277-8.012 4.266-12.109 6.363-.488.129-21.277 10.344-12.801 5.473l24.91-11.836zm-3.582-.652c-.52 1.109-3.18 1.734-4.945 2.52-1.035.398-3.836 1.418-4.086 1.305 2.98-1.285 5.84-2.621 9.031-3.824zm9.41 3.938c-1.18 1.723-5.395 2.699-7.129 4.309-2.086 1.238-4.562 2.395-5.969 3.797-6.582 5.285 1.172-.172 5.676-1.676 2.289-.664 2.953-1.762 4.066-2.703 1.461-.324 2.43-1.371 2.02-1.586 2.766 1.027-2.535 1.898-2.734 3.004-1.445 1.105-4.391 1.82-5.23 3.066 2.266-.57 3.227-1.676 4.789-2.508.902-.676 3.113-1.934 3.879-2.059-2.539 1.426-4.305 3.07-7.402 4.332-6.262 4.23-2.055 1.449 2.938-.387 1.426-.738 1.816-2.098 4.266-2.352-8.258 5.66-26.422 14.793-10.426 4.32-.711.219-33.199 10.074-6.957-1.82 2.844-1.547 5.445-3.156 8.211-4.727 1.887.227-2.09 1.359-2.562 1.934-19.687 9.352-12.703 8.563 2.031.848 3.469-1.941 6.762-3.945 10.535-5.793zm-2.746 1.594c1.227.066-.285-.5 0 0zm-6.676 1.371c.805.121-.34-.34 0 0zm-2.004.973c-.828.359 1.031-.219 0 0zm-8.113 4.664c1.664.004 0-.836 0 0zm7.805.34c-.031.383.559-.246 0 0zm-7.945-7.867c-4.594 2.656-10.039 5.055-15.309 7.492-.754.348-3.93 1.559-2.02.527 4.969-2.453 9.832-4.953 15.23-7.262.707-.238 1.238-.602 2.098-.758zm19.695.266c.613.789-1.34-.082 0 0zm-27.141 1.875c.109.496-3.754 1.996-2.191.902.59-.344 1.238-.703 2.191-.902zm27.16 1.156c-.457.645-.02-.473 0 0zm-.027 1.152c.09 1.449-2.949 2.527-3.316 3.934-11.109 2.633-5.176 1.492 1.773-2.734.512-.398.93-.82 1.543-1.199zm-.602.16c-.023.941-2.555.434 0 0zm-1.785 1.105c.32.438-.984.07 0 0zm-1.117.719c-.836.41.285-.348 0 0zm-5.371.613c-.332.32-.277-.293 0 0zm3.531.402c-.883.438.336-.344 0 0zm-.562.449c.023.461-.977.004 0 0zm-.555.313c.152.449-.828.031 0 0zm-.559.328c.063.426-1.344.117 0 0zm0 0" class="B E F G"/></g><mask id="N"><g class="C"><path d="M0 0h100v100H0z" class="B D I"/></g></mask><clipPath id="O"><path d="M0 0h100v100H0z"/></clipPath><g id="P" clip-path="url(#O)"><path d="M66.836 40.426c.367-.211 1.09-.402 1.617-.602.789-.187 1.152-.426 1.949-.609.316-.082.188-.207-.262-.082-.559-.059.656-.301.859-.426l3.082-1.062c-.387.219-.914.441-1.484.656-.359.082-.984.359-.5.316l1.867-.633c.461-.184 1.098-.453 1.82-.559-.496.242-.797.504-1.652.723l-4.348 1.398-2.059.664-.891.215zm4.086-1.465c.559-.035.891-.359.164-.141-.145.039-.812.262-.164.141zm3.285-.969c-.09-.039-.098.027-.008.012zm-7.695 2.301c-.012-.07.84-.348.781-.238-.187.082-.359.191-.781.238zm2.934-.953c-.426.172-.93.344-1.547.496.277-.129.957-.406 1.547-.496zm-5.309.5c.195-.246 1.332-.457 1.746-.703.734-.156-.187.145-.352.211l-1.395.492zm4.223-.355c.629-.285 1.547-.547 2.289-.82.68-.086-.406.211-.551.277l-1.738.543zm-2.719.375c.938-.395 2.141-.773 3.234-1.156.129-.031 5.68-1.922 3.406-1.051l-6.641 2.207zm.926.016c.148-.168.852-.312 1.32-.461l1.082-.273-2.402.734zm-2.41-.348c.328-.27 1.438-.496 1.91-.762l1.602-.664c1.781-.887-.305.051-1.5.359-.605.145-.793.313-1.094.469-.387.078-.648.246-.547.266-.711-.082.684-.32.75-.48.391-.187 1.168-.352 1.402-.547-.598.133-.863.309-1.281.457-.242.117-.836.34-1.035.375.68-.254 1.16-.523 1.984-.77 1.684-.73.551-.25-.773.117-.383.137-.5.336-1.141.426 2.223-.977 7.07-2.66 2.773-.836.188-.047 8.789-2.141 1.797.102l-2.199.848c-.492.008.559-.238.691-.328 5.25-1.746 3.414-1.484-.523-.078l-2.816 1.047zm.734-.285c-.32.02.07.066 0 0zm1.762-.34c-.211.004.082.043 0 0zm.531-.18c.223-.066-.27.055 0 0zm2.176-.832c-.434.035-.012.117 0 0zm-2.035.121c.012-.051-.148.047 0 0zm1.984.934l4.086-1.387c.199-.066 1.043-.305.531-.121l-4.062 1.355c-.187.051-.328.113-.555.152zm-5.145.395c-.148-.098.352-.02 0 0zm7.113-.859c-.023-.066 1.004-.359.582-.172-.156.059-.332.125-.582.172zm-7.082.434c.129-.102 0 .066 0 0zm.02-.164c-.004-.199.801-.418.914-.625 2.934-.613 1.367-.324-.496.422l-.418.203zm.16-.035c.02-.133.672-.117 0 0zm.48-.195c-.078-.055.258-.031 0 0zm.301-.125c.223-.074-.078.055 0 0zm1.41-.203c.09-.051.066.035 0 0zm-.918.02c.234-.078-.094.059 0 0zm.152-.074c0-.062.254-.023 0 0zm.148-.055c-.035-.062.215-.023 0 0zm.148-.059c-.012-.059.352-.047 0 0zm0 0" class="B E F G"/></g><mask id="Q"><g class="C"><path d="M0 0h100v100H0z" class="B D H"/></g></mask><clipPath id="R"><path d="M0 0h100v100H0z"/></clipPath><g id="S" clip-path="url(#R)"><path d="M63.641 33.273c-1.609 1.227-4.836 2.105-7.168 3.176-3.535.805-5.09 2.223-8.652 3.02-1.43.391-.785 1.309 1.223.719 2.563.727-2.891 1.668-3.766 2.414-4.617 1.813-9.602 3.531-13.672 5.484 1.684-1.289 4.016-2.492 6.531-3.625 1.609-.352 4.359-1.883 2.16-1.891-2.449 1.184-5.457 2.207-8.285 3.25-2.031 1.004-4.844 2.461-8.102 2.762 2.188-1.352 3.445-2.957 7.277-3.965 5.871-2.508 12.453-4.828 19.313-7.055l9.148-3.332c1.398-.289 2.582-.672 3.992-.957zm-18.109 7.641c-2.539-.086-3.918 1.93-.687.852.645-.176 3.613-1.316.688-.852zm-14.625 4.734c.426.305.445-.145.035-.098zm34.25-11.285c.086.48-3.695 1.875-3.461 1.18.809-.473 1.566-1.105 3.461-1.18zm-13.016 4.813a32.82 32.82 0 0 1 6.855-2.504c-1.215.73-4.211 2.219-6.855 2.504zm24.039-.391c-.797 1.586-5.914 2.367-7.719 3.797-3.281.664.813-.871 1.527-1.219 2-.875 4.039-1.742 6.191-2.578zm-19.141.031c-2.766 1.57-6.855 2.828-10.148 4.273-3.07.188 1.785-1.207 2.414-1.57 2.41-.898 5.078-2.078 7.734-2.703zm12.27-1.023c-4.137 2.164-9.484 4.055-14.336 6.051-.578.121-25.195 9.836-15.156 5.203l29.492-11.254zm-4.242-.625c-.613 1.059-3.766 1.652-5.852 2.398-1.227.379-4.543 1.348-4.84 1.242 3.527-1.227 6.914-2.492 10.691-3.641zm11.145 3.746c-1.402 1.637-6.391 2.566-8.441 4.098-2.469 1.176-5.402 2.277-7.066 3.613-7.793 5.023 1.387-.164 6.715-1.594 2.711-.633 3.5-1.676 4.816-2.574 1.73-.309 2.879-1.305 2.391-1.508 3.273.977-3 1.809-3.234 2.855-1.711 1.055-5.199 1.734-6.195 2.918 2.688-.543 3.824-1.594 5.672-2.383 1.07-.645 3.684-1.84 4.59-1.961-3.004 1.355-5.098 2.922-8.762 4.121-7.414 4.023-2.434 1.379 3.477-.367 1.691-.699 2.148-1.996 5.051-2.238-9.777 5.387-31.281 14.07-12.344 4.109-.84.207-39.305 9.582-8.234-1.73 3.363-1.469 6.449-3.004 9.719-4.496 2.234.215-2.473 1.297-3.031 1.84-23.309 8.891-15.039 8.141 2.402.809 4.105-1.848 8.004-3.754 12.477-5.512zm-3.254 1.516c1.453.063-.336-.473 0 0zm-7.902 1.305c.949.113-.406-.324 0 0zm-2.375.922c-.977.344 1.223-.207 0 0zm-9.605 4.438c1.969.004 0-.793 0 0zm9.242.324c-.039.363.66-.234 0 0zm-9.41-7.48c-5.437 2.527-11.883 4.805-18.125 7.125-.891.328-4.652 1.48-2.391.5 5.887-2.332 11.641-4.711 18.035-6.902.836-.23 1.465-.574 2.48-.723zm23.324.25c.723.75-1.59-.078 0 0zM44.09 43.973c.137.469-4.441 1.895-2.59.859.699-.332 1.465-.672 2.59-.859zm32.164 1.098c-.547.613-.023-.445 0 0zm-.035 1.098c.105 1.375-3.492 2.402-3.926 3.742-13.152 2.5-6.129 1.414 2.102-2.602.605-.383 1.098-.781 1.824-1.141zm-.711.152c-.027.895-3.027.41 0 0zm-2.117 1.051c.383.418-1.16.066 0 0zm-1.32.684c-.992.391.336-.332 0 0zm-6.359.582c-.395.305-.328-.277 0 0zm4.18.383c-1.043.414.398-.324 0 0zm-.664.43c.027.438-1.156 0 0 0zm-.66.293c.18.43-.98.031 0 0zm-.66.316c.078.402-1.59.109 0 0zm0 0" class="B E F G"/></g><mask id="T"><g class="C"><path d="M0 0h100v100H0z" class="B D H"/></g></mask><clipPath id="U"><path d="M0 0h100v100H0z"/></clipPath><g id="V" clip-path="url(#U)"><path d="M46.453 26.867c-1 1.145-2.914 2.359-4.324 3.531-2.086 1.219-3.066 2.484-5.172 3.703-.848.539-.523 1.043.668.262 1.441.016-1.766 1.691-2.312 2.367-2.77 2.113-5.75 4.234-8.211 6.34 1.047-1.199 2.461-2.465 3.98-3.719.949-.543 2.625-2.113 1.352-1.703-1.48 1.273-3.277 2.543-4.969 3.789-1.23 1.074-2.941 2.605-4.84 3.426 1.34-1.34 2.156-2.68 4.43-4.09 3.535-2.828 7.469-5.664 11.559-8.484l5.477-4.012c.824-.461 1.531-.949 2.363-1.41zm-10.898 8.656c-1.465.422-2.375 2.066-.445.715.383-.242 2.16-1.582.445-.715zm-8.723 6.008c.23.129.266-.184.027-.074zm20.434-14.203c.023.316-2.242 1.984-2.066 1.465.496-.477.969-1.055 2.066-1.465zm-7.793 5.758c1.137-.992 2.48-2.027 4.105-3.012-.746.73-2.559 2.316-4.105 3.012zm13.922-4.801c-.551 1.238-3.551 2.738-4.676 4.059-1.934 1.074.52-.75.953-1.125 1.203-.977 2.434-1.953 3.723-2.934zm-11.07 3.633c-1.687 1.598-4.121 3.23-6.105 4.844-1.785.707 1.102-1.164 1.484-1.531 1.441-1.07 3.051-2.383 4.621-3.312zm7.152-3.02c-2.512 2.266-5.711 4.57-8.625 6.855-.344.191-15.117 11.5-9.055 6.43l17.68-13.285zm-2.418.375c-.414.84-2.27 1.84-3.52 2.746-.727.492-2.699 1.781-2.867 1.766 2.109-1.508 4.137-3.016 6.387-4.512zm6.234.465c-.902 1.387-3.836 2.969-5.109 4.402-1.492 1.273-3.25 2.582-4.285 3.813-4.785 4.914.809-.375 3.973-2.359 1.602-.945 2.113-1.812 2.926-2.676 1.016-.535 1.734-1.437 1.465-1.484 1.84.055-1.832 1.805-2.027 2.57-1.047 1.043-3.102 2.168-3.746 3.168 1.586-.875 2.301-1.812 3.414-2.703.652-.645 2.23-1.957 2.762-2.211-1.812 1.496-3.109 2.965-5.297 4.48-4.508 4.156-1.48 1.406 2.031-.91 1.02-.797 1.355-1.773 3.047-2.484-5.953 5.535-18.871 15.551-7.367 5.145-.496.301-23.258 13.988-4.664.367l5.871-4.918c1.277-.273-1.504 1.355-1.855 1.836-13.977 10.496-9.152 8.422 1.344.098 2.477-2.043 4.836-4.082 7.52-6.133zm-1.965 1.652c.836-.23-.168-.262 0 0zm-4.645 2.387c.547-.102-.215-.145 0 0zm-1.422 1.082c-.586.418.719-.371 0 0zm-5.801 4.855c1.137-.371.043-.547 0 0zm5.324-1.52c-.043.254.395-.285 0 0zm-5.023-3.359c-3.285 2.758-7.137 5.539-10.875 8.305-.535.395-2.773 1.895-1.414.797 3.535-2.711 6.996-5.43 10.813-8.137.5-.316.879-.672 1.477-.965zm13.473-4.227c.375.379-.914.246 0 0zm-18.684 7.285c.051.297-2.676 2.141-1.547 1.078.422-.359.887-.734 1.547-1.078zm18.535-5.312c-.348.523.012-.301 0 0zm-.078.758c-.02.926-2.156 2.309-2.48 3.309-7.746 4.195-3.625 2.129 1.359-2.18.371-.375.68-.746 1.121-1.129zm-.422.238c-.066.621-1.773.855 0 0zm-1.281 1.121c.195.215-.676.266 0 0zm-.805.719c-.594.457.215-.289 0 0zm-3.707 1.602c-.246.281-.176-.133 0 0zm2.395-.527c-.625.48.25-.301 0 0zm-.41.418c-.008.297-.668.219 0 0zm-.395.328c.078.258-.57.203 0 0zm-.398.34c.02.262-.926.375 0 0zm0 0" class="B E F G"/></g><mask id="W"><g class="C"><path d="M0 0h100v100H0z" class="B D H"/></g></mask><clipPath id="X"><path d="M0 0h100v100H0z"/></clipPath><g id="Y" clip-path="url(#X)"><path d="M59.715 24.469c.516.727 1.723 1.395 2.547 2.094 1.34.652 1.809 1.473 3.16 2.121.535.297.172.711-.574.277-1.121.188.98 1.039 1.254 1.473l4.914 3.711c-.535-.766-1.344-1.531-2.234-2.277-.613-.289-1.551-1.25-.66-1.102.855.766 1.957 1.492 2.988 2.211.707.645 1.684 1.574 2.969 1.953-.734-.832-1.062-1.727-2.5-2.5-2.098-1.668-4.5-3.293-7.023-4.891l-3.328-2.312-1.512-.758zm6.473 5.102c1.039.133 1.367 1.242.18.477-.238-.137-1.312-.914-.18-.477zm5.387 3.398c-.207.121-.164-.105 0-.055zM58.98 24.91c-.09.234 1.285 1.199 1.27.836-.277-.293-.512-.668-1.27-.836zm4.727 3.324a11.25 11.25 0 0 0-2.492-1.734c.41.453 1.453 1.406 2.492 1.734zm-9.687-1.867c.145.852 2.129 1.602 2.699 2.445 1.254.563-.234-.496-.484-.719l-2.215-1.727zm7.746 1.348c.941.98 2.457 1.898 3.625 2.855 1.223.309-.586-.73-.797-.957-.875-.621-1.824-1.398-2.828-1.898zm-4.852-1.371c1.43 1.379 3.383 2.699 5.121 4.039.219.102 9.094 6.699 5.551 3.672-3.465-2.586-7.039-5.152-10.672-7.711zm1.785-.016c.133.574 1.34 1.09 2.102 1.609.453.277 1.688.996 1.82.961-1.293-.859-2.52-1.73-3.922-2.57zm-4.93 1.105c.383.922 2.297 1.734 2.953 2.645.867.766 1.934 1.523 2.457 2.309 2.586 3.07-.547-.176-2.543-1.266-1.023-.508-1.227-1.086-1.656-1.629-.668-.277-1.02-.855-.801-.926-1.434.262 1.012 1.117.988 1.66.574.648 1.91 1.234 2.18 1.898-1.027-.461-1.367-1.066-2.027-1.594-.359-.398-1.285-1.18-1.637-1.305 1.063.891 1.734 1.824 3.082 2.684 2.551 2.535.828.863-1.367-.43-.605-.469-.645-1.152-1.789-1.477 3.348 3.387 11.078 9.25 4.531 2.926.316.164 14.832 7.555 3.531-.297-1.199-.973-2.273-1.957-3.43-2.934-.93-.047.855.82 1.02 1.137 8.434 6.09 5.172 5.137-1.062.234-1.457-1.215-2.82-2.441-4.43-3.637zm1.145.988c-.594-.07.191-.215 0 0zm3.055 1.207c-.398-.012.199-.137 0 0zm.855.629c.355.238-.473-.191 0 0zm3.387 2.898c-.797-.137.094-.398 0 0zm-3.777-.48c-.023.184-.238-.164 0 0zm4.652-3.105c1.918 1.648 4.27 3.242 6.535 4.844.324.227 1.715 1.066.91.418-2.117-1.582-4.18-3.18-6.52-4.727-.316-.172-.531-.391-.926-.535zm-9.469-1.496c-.379.324.652.07 0 0zm12.809 3.133c-.105.227 1.586 1.262.953.613-.246-.215-.52-.441-.953-.613zM53.285 29.52c.148.348.059-.223 0 0zm-.113.555c-.195.684 1.145 1.449 1.172 2.152 5.039 2.172 2.32 1.141-.559-1.453-.203-.234-.355-.469-.613-.699zm.273.125c-.09.453 1.176.418 0 0zm.738.676c-.203.184.461.113 0 0zm.457.434c.355.266-.098-.187 0 0zm2.508.738c.125.18.164-.117 0 0zm-1.734-.098c.375.281-.125-.195 0 0zm.223.262c-.062.215.465.078 0 0zm.23.191c-.121.203.395.082 0 0zm.234.203c-.078.199.629.168 0 0zm0 0" class="B E F G"/></g><mask id="Z"><g class="C"><path d="M0 0h100v100H0z" class="B D H"/></g></mask><clipPath id="a"><path d="M0 0h100v100H0z"/></clipPath><g id="b" clip-path="url(#a)"><path d="M29.195 52.137c-.023.695.391 2.031.559 3.012.5 1.461.406 2.137.914 3.609.18.59-.219.359-.465-.473-.742-1.016.113 1.227.078 1.605l1.23 5.727c.027-.727-.105-1.711-.297-2.77-.23-.664-.352-1.828.105-.937.16 1.031.484 2.285.77 3.465.129.859.285 2.047.871 3.379-.059-.934.148-1.496-.352-3.086l-1.941-8.062-.922-3.82-.551-1.648zm1.523 7.594c.551 1.027.25 1.656-.105.309-.082-.266-.363-1.508.105-.309zm1.648 6.09c-.176-.164-.047-.187.023-.02zm-3.801-14.262c-.16-.02.219 1.563.371 1.441-.031-.344 0-.672-.371-1.441zm1.293 5.438c-.117-.793-.32-1.73-.691-2.863a10.07 10.07 0 0 0 .691 2.863zm-4.867-9.758c-.297.375.535 2.477.492 3.258.484 1.352.086-.359.039-.664l-.531-2.594zM28.949 55c.113 1.172.594 2.871.855 4.254.578 1.25-.02-.766-.043-1.031L28.949 55zm-2.242-5.008c.223 1.746.781 3.977 1.203 6.012.086.238 2.352 10.539 1.621 6.316l-2.824-12.328zm1.059 1.695c-.18.285.301 1.582.516 2.453l.637 2.004-1.152-4.457zm-3.398-4.391c-.187.621.574 2.676.555 3.559.164 1.039.453 2.266.406 2.984.148 3.328-.238-.566-.926-2.773-.375-1.121-.234-1.477-.246-2.039-.27-.711-.215-1.211-.055-1.02-.965-1.297.094 1.277-.164 1.406.047.73.57 2.164.434 2.609-.398-1.105-.328-1.605-.48-2.379-.035-.457-.227-1.555-.379-1.926.227 1.262.203 2.164.613 3.688.363 3.141.102 1.035-.613-1.422-.145-.707.137-.937-.395-2.121.457 4.145 2.375 13.148 1.359 5.141.113.348 5.344 16.25 2.211 3.281l-.703-4.09c-.527-.898.133 1.047.09 1.289 2.234 9.746.742 6.367-.73-.945l-.977-5.242zm.23 1.367c-.32-.582.207.125 0 0zm1.258 3.25c-.23-.383.176.152 0 0zm.223.992c.102.406-.195-.5 0 0zm.695 4.043c-.41-.801.23-.027 0 0zm-2.012-3.738c-.094.031-.066-.273 0 0zm4.133 3.566l1.676 7.586c.09.371.531 1.934.348.984l-1.719-7.539c-.109-.348-.137-.613-.305-1.031zm-4.902-9.445c-.371-.27.352.641 0 0zm6.133 13.086c-.164-.039.367 1.863.285 1.078-.047-.293-.105-.613-.285-1.078zm-6.98-13c-.066.242.137-.004 0 0zm-.312.051c-.422.004.023 1.496-.277 1.719 1.996 5.414.855 2.531.324-.941-.016-.258 0-.469-.047-.777zm.105.293c-.258.043.504 1.242 0 0zm.129.895c-.199-.141.223.473 0 0zm.074.559c.094.414.027-.148 0 0zm1.148 2.598c-.008.168.148.121 0 0zm-.977-1.684c.094.438.012-.172 0 0zm.012.285c-.133.004.238.469 0 0zm.051.277c-.164-.059.195.398 0 0zm.043.277c-.133-.02.297.648 0 0zm0 0" class="B E F G"/></g><mask id="c"><g class="C"><path d="M0 0h100v100H0z" class="B D I"/></g></mask><clipPath id="d"><path d="M0 0h100v100H0z"/></clipPath><g id="e" clip-path="url(#d)"><path d="M25.91 49.063c.297.047.805.266 1.199.391.551.254.848.281 1.402.535.227.098.18-.031-.137-.164-.332-.285.5.129.668.148l2.254.793c-.312-.051-.711-.164-1.133-.301-.246-.117-.723-.242-.41-.047.418.125.902.316 1.363.488.344.102.828.238 1.313.504-.387-.09-.652-.074-1.258-.34l-3.148-1.172-1.488-.555-.625-.281zm3.004 1.02c.363.23.668.199.145-.008-.102-.043-.586-.219-.145.008zm2.355.934c-.047-.062-.074-.027-.012.004zm-5.52-2.176c.016-.043.629.184.559.219-.141-.035-.281-.055-.559-.219zm2.125.785a8.78 8.78 0 0 1-1.117-.414c.211.051.723.203 1.117.414zm-3.473-2.113c.199-.051.973.344 1.309.395.508.238-.164-.008-.285-.043l-1.023-.352zm2.75 1.707c.48.125 1.133.391 1.684.57.453.262-.32-.066-.43-.094l-1.254-.477zm-1.816-1.016c.707.199 1.578.531 2.379.809l2.453.945-4.832-1.754zm.578.426c.141-.027.625.207.965.336l.762.336-1.727-.672zm-1.402-1.285c.285-.004 1.051.371 1.426.434l1.207.348c1.387.305-.207-.109-1.047-.473-.426-.195-.594-.184-.828-.23-.266-.129-.484-.156-.426-.098-.418-.367.527.129.617.066.301.07.84.328 1.043.328-.414-.199-.633-.219-.937-.32-.187-.047-.629-.187-.766-.258.504.16.887.227 1.477.461 1.277.348.422.109-.52-.281-.277-.098-.414-.039-.844-.277 1.691.453 5.238 1.691 1.992.781.133.059 6.152 2.758 1.09.871l-1.633-.52c-.309-.215.422.121.531.129 3.82 1.387 2.594.707-.301-.277l-2.082-.684zm.547.172c-.207-.133.023.066 0 0zm1.203.602c-.129-.094.039.063 0 0zm.391.141c.156.063-.187-.094 0 0zm1.613.512c-.281-.176-.043.063 0 0zm-1.309-.852c.023-.023-.109-.039 0 0zm.953 1.426l2.98 1.063c.148.051.746.297.371.172l-2.957-1.07-.395-.164zm-3.336-2.102c-.062-.121.227.148 0 0zm4.711 2.727c.004-.047.738.25.418.168-.117-.039-.246-.082-.418-.168zm-4.562-2.953c.113 0-.02.035 0 0zm.063-.082c.059-.117.629.125.766.059 2.02.977.953.434-.441.016l-.324-.074zm.113.051c.051-.066.457.238 0 0zm.359.105c-.035-.066.168.102 0 0zm.227.066c.16.059-.066-.004 0 0zm.941.52c.074.012.035.055 0 0zm-.578-.402c.172.063-.074-.008 0 0zm.117.027c.02-.035.168.102 0 0zm.109.035c0-.051.145.086 0 0zm.113.035c.012-.039.234.133 0 0zm0 0" class="B E F G"/></g><mask id="f"><g class="C"><path d="M0 0h100v100H0z" class="B D I"/></g></mask><clipPath id="g"><path d="M0 0h100v100H0z"/></clipPath><g id="h" clip-path="url(#g)"><path d="M38.676 56.809c.742-.668 2.516-1.402 3.719-2.098 1.969-.742 2.645-1.477 4.633-2.219.785-.328.23-.594-.863-.125-1.668.043 1.43-.992 1.816-1.383l7.195-3.777c-.777.695-1.953 1.445-3.254 2.184-.898.336-2.27 1.258-.949.988 1.25-.754 2.867-1.516 4.371-2.262 1.035-.633 2.457-1.535 4.352-2.055-1.062.785-1.523 1.555-3.637 2.41-3.062 1.684-6.582 3.379-10.289 5.078l-4.875 2.398c-.785.285-1.426.574-2.219.859zm9.461-5.148c1.539-.285 1.996-1.223.254-.41-.352.145-1.922.945-.254.41zm7.902-3.613c-.312-.062-.238.109-.004.043zM37.57 56.582c-.141-.176 1.871-1.172 1.859-.879-.402.281-.738.613-1.859.879zm6.922-3.445c-.953.59-2.133 1.207-3.652 1.801.594-.426 2.121-1.363 3.652-1.801zm-14.336 3.125c.188-.703 3.113-1.633 3.934-2.402 1.844-.66-.328.434-.695.652-1.035.582-2.102 1.164-3.238 1.75zm11.465-2.383c1.371-.937 3.594-1.922 5.305-2.883 1.805-.449-.852.684-1.16.898-1.281.641-2.664 1.418-4.145 1.984zm-7.164 1.91c2.082-1.336 4.941-2.719 7.484-4.078.328-.117 13.309-6.863 8.137-3.855l-15.621 7.934zm2.652-.289c.176-.477 1.957-1.094 3.074-1.637.664-.297 2.477-1.074 2.672-1.07-1.891.902-3.687 1.805-5.746 2.707zm-7.359-.047c.539-.797 3.359-1.77 4.313-2.605 1.262-.754 2.82-1.535 3.574-2.25 3.754-2.875-.801.234-3.734 1.438-1.508.578-1.789 1.074-2.418 1.578-.98.332-1.484.852-1.156.867-2.141.035 1.469-1.059 1.418-1.484.832-.613 2.801-1.305 3.18-1.879-1.508.539-2 1.078-2.965 1.609-.523.379-1.871 1.156-2.395 1.313 1.555-.887 2.523-1.742 4.504-2.652 3.711-2.449 1.203-.824-2.02.57-.883.477-.922 1.027-2.617 1.477 4.875-3.258 16.18-9.227 6.648-3.09.465-.184 21.809-8.512 5.25-.359-1.746.973-3.316 1.941-5.004 2.914-1.379.191 1.246-.801 1.48-1.078 12.348-6.27 7.527-4.961-1.59-.008-2.121 1.211-4.109 2.418-6.469 3.641zm1.672-.98c-.879.156.289.141 0 0zm4.5-1.473c-.59.074.301.074 0 0zm1.254-.645c.523-.254-.695.227 0 0zm4.949-2.879c-1.184.242.145.301 0 0zm-5.602 1.02c-.043-.145-.352.172 0 0zm7.008 1.684c2.797-1.633 6.242-3.297 9.563-4.953.473-.238 2.516-1.141 1.34-.488-3.102 1.617-6.117 3.234-9.547 4.859-.461.191-.773.402-1.355.582zm-14.027 2.789c-.57-.195.969-.164 0 0zm18.938-4.652c-.164-.164 2.316-1.273 1.395-.648-.355.211-.754.438-1.395.648zm-19.477 3.559c.215-.301.098.168 0 0zm-.18-.422c-.312-.512 1.656-1.348 1.672-1.91 7.426-2.578 3.414-1.297-.785 1.25-.293.219-.516.434-.887.66zm.398-.145c-.145-.344 1.738-.531 0 0zm1.078-.664c-.305-.109.684-.168 0 0zm.668-.422c.52-.273-.141.168 0 0zm3.703-1.008c.18-.164.246.063 0 0zm-2.574.371c.551-.289-.18.172 0 0zm.32-.246c-.094-.164.691-.145 0 0zm.34-.195c-.184-.141.582-.133 0 0zm.34-.199c-.121-.145.934-.238 0 0zm0 0" class="B E F G"/></g><mask id="i"><g class="C"><path d="M0 0h100v100H0z" class="B D H"/></g></mask><clipPath id="j"><path d="M0 0h100v100H0z"/></clipPath><g id="k" clip-path="url(#j)"><path d="M33.109 26.617c.84.004 2.445-.422 3.629-.609 1.754-.512 2.574-.445 4.344-.961.711-.187.441.195-.559.449-1.211.73 1.48-.137 1.941-.113l6.895-1.32c-.879-.008-2.07.145-3.344.355-.797.234-2.203.383-1.137-.074 1.246-.18 2.754-.523 4.176-.82 1.031-.145 2.469-.324 4.063-.918-1.125.082-1.812-.098-3.719.418l-9.707 2.055-4.598.973-1.984.566zm9.152-1.648c1.227-.547 1.992-.277.371.094-.32.086-1.812.387-.371-.094zm7.32-1.723c-.191.172-.223.051-.02-.02zm-17.156 3.98c-.02.152 1.883-.246 1.734-.391-.414.039-.812.02-1.734.391zm6.543-1.367c-.953.133-2.082.348-3.445.73.625-.051 2.148-.262 3.445-.73zm-11.684 4.867c.461.27 2.98-.574 3.926-.555 1.621-.496-.437-.07-.801-.02l-3.125.574zm9.293-3.953c1.414-.141 3.457-.641 5.125-.922 1.5-.586-.922.035-1.246.066l-3.879.855zm-6.004 2.258c2.105-.262 4.793-.848 7.242-1.301.285-.086 12.691-2.508 7.602-1.707l-14.844 3.008zm2.027-1.051c.348.164 1.906-.324 2.953-.551l2.41-.66-5.363 1.211zm-5.23 3.336c.754.16 3.223-.613 4.289-.617l3.602-.469c4.02-.23-.684.242-3.336.949-1.348.387-1.777.262-2.461.289-.852.273-1.457.238-1.23.082-1.543.945 1.543-.125 1.707.113.879-.062 2.602-.598 3.145-.477-1.332.406-1.934.352-2.867.516-.551.047-1.875.258-2.32.41 1.523-.246 2.613-.25 4.449-.68 3.789-.426 1.246-.121-1.707.621-.852.156-1.137-.105-2.555.43 4.996-.543 15.844-2.602 6.184-1.426.418-.117 19.531-5.496 3.914-2.18l-4.93.777c-1.074.52 1.262-.156 1.559-.125 11.734-2.375 7.684-.871-1.129.723l-6.312 1.063zm1.648-.254c-.699.316.141-.203 0 0zm3.898-1.277c-.457.227.18-.172 0 0zm1.195-.238c.492-.105-.602.195 0 0zm4.871-.766c-.953.41-.035-.219 0 0zm-4.469 2c.035.094-.332.074 0 0zm4.215-4.004l9.133-1.789c.449-.094 2.328-.555 1.184-.355l-9.078 1.828c-.418.113-.738.148-1.238.316zm-11.309 4.895c-.316.355.766-.352 0 0zm15.684-6.156c-.043.156 2.246-.398 1.297-.301-.355.055-.742.117-1.297.301zm-15.559 6.953c.293.059-.012-.129 0 0zm.066.293c.016.402 1.809-.059 2.082.219 6.504-2.031 3.043-.879-1.141-.281l-.941.063zm.352-.102c.059.238 1.488-.516 0 0zm1.078-.152c-.164.195.566-.219 0 0zm.672-.082c.5-.098-.176-.023 0 0zm3.117-1.156c.203 0 .145-.145 0 0zm-2.012.969c.523-.102-.211-.008 0 0zm.344-.02c.008.125.559-.238 0 0zm.332-.055c-.066.156.477-.195 0 0zm.336-.051c-.02.129.777-.297 0 0zm0 0" class="B E F G"/></g><mask id="l"><g class="C"><path d="M0 0h100v100H0z" class="B D H"/></g></mask><clipPath id="m"><path d="M0 0h100v100H0z"/></clipPath><g id="n" clip-path="url(#m)"><path d="M50.691 22.25c.684.457 2.258.984 3.34 1.473 1.746.539 2.375 1.039 4.137 1.578.699.234.242.402-.73.063-1.434-.059 1.297.691 1.66.961l6.441 2.672c-.715-.484-1.777-1.008-2.949-1.527-.793-.242-2.035-.887-.887-.68 1.129.531 2.57 1.07 3.914 1.598.934.445 2.219 1.078 3.883 1.461-.969-.547-1.422-1.066-3.297-1.684l-9.191-3.598-4.355-1.699-1.965-.617zm8.488 3.629c1.34.219 1.801.855.25.277-.312-.105-1.719-.672-.25-.277zm7.039 2.57c-.262.035-.215-.078-.004-.027zm-16.461-6.07c-.105.113 1.691.82 1.66.625-.363-.195-.676-.426-1.66-.625zm6.188 2.438c-.859-.41-1.914-.848-3.262-1.273.539.297 1.918.953 3.262 1.273zM43.43 22.445c.211.473 2.785 1.152 3.547 1.684 1.633.477-.312-.297-.641-.453l-2.906-1.23zm10.004 1.82c1.242.652 3.219 1.355 4.758 2.031 1.578.336-.781-.473-1.062-.621l-3.695-1.41zm-6.285-1.418c1.883.934 4.438 1.914 6.719 2.871.285.086 11.91 4.852 7.258 2.742l-13.977-5.613zm2.297.242c.188.324 1.758.773 2.754 1.156l2.371.77-5.125-1.926zm-6.305-.113c.52.543 3.012 1.25 3.887 1.824l3.23 1.578c3.43 1.996-.703-.172-3.309-1.035-1.336-.418-1.613-.754-2.187-1.102-.863-.242-1.336-.602-1.055-.605-1.836-.066 1.336.738 1.324 1.023.762.426 2.496.926 2.867 1.316-1.336-.391-1.797-.762-2.66-1.133-.477-.266-1.691-.812-2.148-.926 1.395.625 2.289 1.215 4.051 1.863 3.363 1.707 1.098.574-1.77-.422-.793-.336-.867-.707-2.355-1.039 4.422 2.273 14.551 6.488 5.93 2.199.41.129 19.32 6.121 4.527.344l-4.508-2.047c-1.195-.156 1.129.559 1.352.746 11.047 4.438 6.816 3.465-1.363-.023l-5.812-2.562zm1.504.688c-.766-.121.238-.086 0 0zm3.965 1.074c-.512-.062.254-.043 0 0zm1.125.457c.465.18-.613-.168 0 0zm4.453 2.023c-1.031-.187.102-.199 0 0zm-4.875-.793c-.027.094-.312-.121 0 0zm5.879-.988l8.563 3.504c.426.164 2.242.809 1.188.352l-8.543-3.441c-.41-.137-.695-.281-1.207-.414zm-12.227-2.145c-.473.121.844.133 0 0zm16.574 3.488c-.129.105 2.082.898 1.246.461-.324-.148-.68-.305-1.246-.461zm-16.953-2.766c.203.203.066-.109 0 0zm-.125.277c-.23.336 1.52.934 1.574 1.309 6.555 1.875 3.023.938-.766-.848l-.809-.461zm.352.105c-.098.227 1.531.391 0 0zm.973.465c-.254.066.598.125 0 0zm.602.297c.469.191-.133-.117 0 0zm3.25.746c.168.113.207-.039 0 0zm-2.234-.301c.492.203-.164-.117 0 0zm.293.172c-.07.109.605.109 0 0zm.309.137c-.148.09.508.102 0 0zm.305.141c-.094.094.816.18 0 0zm0 0" class="B E F G"/></g><mask id="o"><g class="C"><path d="M0 0h100v100H0z" class="B D I"/></g></mask><clipPath id="p"><path d="M0 0h100v100H0z"/></clipPath><g id="q" clip-path="url(#p)"><path d="M27.32 35.25c-.137.5-.691 1.418-1.016 2.102-.637 1-.727 1.492-1.371 2.496-.246.406.063.281.402-.293.695-.652-.34.871-.402 1.145l-2.039 3.98c.141-.523.441-1.215.797-1.953.289-.453.625-1.277.137-.684-.328.723-.812 1.59-1.25 2.41-.27.602-.629 1.438-1.297 2.332.242-.66.23-1.086.898-2.172l3.004-5.59 1.426-2.645.711-1.129zm-2.633 5.293c-.578.68-.52 1.16 0 .23.113-.184.563-1.047 0-.23zm-2.387 4.199c.152-.098.074-.129-.008-.016zm5.551-9.844c.105 0-.48 1.094-.551.996.094-.242.145-.48.551-.996zm-2.016 3.766c.25-.555.582-1.203 1.07-1.98-.137.367-.535 1.254-1.07 1.98zm5.254-6.516c.109.301-.883 1.723-1.023 2.285-.609.922.023-.266.117-.477l.906-1.809zm-4.234 5.176c-.328.828-1.008 2-1.477 2.965-.645.84.18-.547.254-.734l1.223-2.23zm2.535-3.367c-.527 1.227-1.371 2.773-2.086 4.188-.105.164-3.805 7.32-2.418 4.367l4.504-8.555zM28.34 35.07c.051.219-.539 1.102-.867 1.703l-.848 1.375 1.715-3.078zm3.141-2.816c-.016.461-.953 1.859-1.133 2.492l-.914 2.098c-.82 2.371.281-.383 1.203-1.895.484-.766.473-1.035.602-1.437.328-.484.402-.844.258-.723.902-.836-.34.902-.203 1.023-.187.516-.836 1.492-.844 1.824.496-.754.559-1.117.824-1.656.121-.324.484-1.094.664-1.344-.422.883-.602 1.531-1.199 2.582-.914 2.215-.289.73.703-.957.25-.492.117-.687.719-1.48-1.195 2.922-4.395 9.184-1.996 3.547-.148.238-6.977 11.121-2.133 2.137l1.34-2.859c.535-.594-.312.734-.34.914-3.559 6.762-1.863 4.488.68-.609l1.77-3.656zm-.449.957c.336-.391-.16.066 0 0zm-1.512 2.203c.23-.25-.148.094 0 0zm-.359.691c-.156.281.23-.344 0 0zm-1.328 2.824c.438-.531-.145-.039 0 0zm2.105-2.48c.055.031.102-.187 0 0zm-3.434 2.152l-2.73 5.27c-.137.262-.762 1.336-.437.676l2.75-5.234c.145-.238.219-.426.418-.711zm5.211-6.289c.293-.156-.367.426 0 0zm-6.797 8.777c.117-.012-.641 1.301-.418.746.094-.207.203-.43.418-.746zm7.32-8.633c-.012.18-.086-.016 0 0zm.191.066c.27.047-.344 1.07-.195 1.258-2.465 3.684-1.105 1.73-.004-.703l.195-.555zm-.133.203c.156.055-.594.836 0 0zm-.277.625c.16-.082-.246.316 0 0zm-.172.395c-.148.285.016-.109 0 0zm-1.301 1.746c-.031.121-.125.074 0 0zm.996-1.109c-.156.305.027-.125 0 0zm-.074.203c.086.016-.254.313 0 0zm-.09.191c.117-.023-.211.27 0 0zm-.09.195c.09.004-.332.438 0 0zm0 0" class="B E F G"/></g><mask id="r"><g class="C"><path d="M0 0h100v100H0z" fill-opacity=".6" class="B D"/></g></mask><radialGradient id="s" cx="-1164.465" cy="183.221" fx="-1164.465" fy="183.221" r="51.982" gradientTransform="matrix(0.615142,0.300495,-0.254835,0.2915,790.840964,326.327098)" xlink:href="#v"><stop offset="0" stop-color="rgb(100%,85.490196%,75.294118%)"/><stop offset="1" stop-color="rgb(100%,81.568627%,52.54902%)" stop-opacity="0"/></radialGradient><clipPath id="t"><path d="M0 0h100v100H0z"/></clipPath><g id="u" clip-path="url(#t)"><path d="M55.273 47.281c6.063-13.715 3.199-27.625-6.402-31.07s-22.301 4.875-28.367 18.59-3.199 27.625 6.398 31.07 22.305-4.875 28.371-18.59zm0 0" fill="url(#s)" class="B E"/></g><linearGradient id="v" gradientUnits="userSpaceOnUse"/></defs><path d="M74.859 21.797c2.039 40.168-35.145 55.887-55.039 51.02 16.184 22.059 43.906 19.824 58.285 5.41 14.238-14.277 16.625-39.555-3.246-56.43zm0 0" fill="rgb(49.411765%,51.764706%,50.588235%)"/><path d="M48.137 10.773c-16.035-.062-31.164 11.352-35.746 26.531-1.914 5.957-2.02 12.418-1.027 18.555 1.543 8.043 5.785 15.543 12.039 20.918 10.617 10.086 27.469 12.566 40.82 6.707 12.586-5.297 21.82-17.664 22.941-31.215 1.582-14.734-6.484-29.91-19.648-36.934-5.898-3.242-12.633-4.859-19.379-4.562zm0 0" fill="url(#A)"/><path d="M73.445 19.293c2.039 40.328-39.77 49.012-59.664 44.125 9.273 23.793 42.508 33.301 62.91 12.527 14.156-14.414 16.625-39.711-3.246-56.652zm0 0" fill="url(#B)"/><path d="M13.656 63.414c-1.145-2.25-1.668-4.906-2.066-7.152l5.992 1.004c.594 3.098 2.234 5 3.203 7.242-1.926.16-4.512-.402-7.129-1.094zm0 0" fill="url(#C)" class="J"/><path d="M81.711 48.074c0-17.617-14.621-31.902-32.656-31.902s-32.66 14.285-32.66 31.902S31.016 79.98 49.055 79.98s32.656-14.285 32.656-31.906zm0 0" fill="url(#D)"/><path d="M78.84 48.391c0-15.559-13.102-28.176-29.258-28.176S20.32 32.832 20.32 48.391s13.102 28.18 29.262 28.18S78.84 63.953 78.84 48.391zm0 0" fill="none" stroke="rgb(49.803922%,31.764706%,18.823529%)" stroke-width="1.011" class="K L"/><g class="J"><path d="M73.617 27.023c-5.027-4.496-8.84-8.863-20.797-10.559l4.191-4.934c3.289.84 8.059 1.207 16.52 7.816zm0 0" fill="url(#E)"/><path d="M18.172 37.621c2.977-6.027 4.875-11.492 15.336-17.48l-5.746-3.027c-2.738 1.992-7.023 4.094-12.391 13.352zm0 0" fill="url(#F)"/></g><path d="M81.957 48.188c0-17.586-14.652-31.844-32.723-31.844S16.508 30.602 16.508 48.188 31.16 80.031 49.234 80.031s32.723-14.258 32.723-31.844zm0 0" fill="none" stroke="rgb(57.647059%,33.72549%,0%)" stroke-width=".513" class="K L"/><use xlink:href="#J" mask="url(#H)"/><use xlink:href="#M" mask="url(#K)"/><use xlink:href="#P" mask="url(#N)"/><use xlink:href="#S" mask="url(#Q)"/><use xlink:href="#V" mask="url(#T)"/><use xlink:href="#Y" mask="url(#W)"/><use xlink:href="#b" mask="url(#Z)"/><use xlink:href="#e" mask="url(#c)"/><use xlink:href="#h" mask="url(#f)"/><use xlink:href="#k" mask="url(#i)"/><use xlink:href="#n" mask="url(#l)"/><use xlink:href="#q" mask="url(#o)"/><use xlink:href="#u" mask="url(#r)"/><path d="M58.234 62.422c.352-6.852.117-14.113.859-20.93-.555-1.645-3.035-.941-4.016.281-1.164 3.676-2.125 8.938-2.375 11.563-.207 1.926-.266 4.18-1.91 5.492-1.016.688-3.715 2.313-4.09.258 1.398-2.043 2.563-4.191 3.406-6.59.344-1.98 1.406-3.82 1.215-5.875.168-2.785.219-5.586-.254-8.348-1.07-2.758 2.387-2.473 4.113-2.543 1.805-.008 4.52.125 4.41-2.395-.113-2.113 2.156-2.988 2.621-.223-.383 2.031 1.605 2.969 3.328 2.633 2.195.063 4.383-.227 6.57-.254 1.273 1.387-1.742 2.883-1.539 4.641-.91 4.57.215 11.922 1.418 15.387.656 1.645.219 3.488.363 5.219.289 1.836-2.34 2.641-3.34 1.164-.859-1.91-1.695-3.934-1.445-6.066.465-5.266-.066-9.727-.359-14.535-.238-2.039-3.137-2.055-4.457-1.098-1.711 1.527-.113 2.945-.578 4.973.285 6.305-.59 11.965-1.117 17.785-.035 4.129-3.512 3.207-2.824-.539zm-29.684.797c-1.598-.621-.52-2.984.512-3.25 1.656-8.383 2.844-17.371-.531-24.852 1.133-1.586 2.457-.512 7.922-2.133.363-.105.68-.734.934-1.008.578-.699 1.43-.504 1.75-.059.246.266.625.645 1.035.676 2.676.203 7.523-.137 8.559.523-.352.32-.969 1.027-1.184 1.707-.965 3.07-1.121 8.59-2.465 9.289-3.453.246-6 1.137-10.633 1.477-.324.27.223 1.215-.383 3.109 3.07-.797 8.777-1.645 13.383-.82-.09 2.441-2.141 6.539-2.148 9.613 1.543.938 1.254 2.449-2.559 2.57-3.973.594-8.031 1.043-11.496 2.504-.887.27-1.801.414-2.695.652zm12.195-7.246c1.211-.777 1.531-2.988 1.383-3.934-1.863-1.109-5.754-.027-7.828.098-.23 1.086-.879 4.598-.773 5.012 1.816.297 5.34-.891 7.219-1.176zm3.371-19.582c-4.418-.57-10.941 1.457-9.996.871-.512.047.816.965.324 4.051 2.008-.273 6.18-.645 8.688-1.277.906-.227.961-2.746.984-3.645zm0 0" fill="rgb(100%,100%,100%)"/><path d="M57.477 61.988c.355-6.852.121-14.113.863-20.93-.559-1.645-3.035-.941-4.016.281-1.164 3.676-2.125 8.938-2.375 11.563-.207 1.926-.266 4.18-1.91 5.492-1.02.688-3.719 2.316-4.09.262 1.398-2.047 2.563-4.191 3.406-6.594.344-1.977 1.406-3.816 1.211-5.875.172-2.785.223-5.586-.25-8.348-1.07-2.758 2.383-2.473 4.113-2.543 1.805-.008 4.52.125 4.41-2.391-.113-2.117 2.152-2.992 2.621-.227-.383 2.035 1.602 2.969 3.328 2.637 2.195.059 4.383-.23 6.57-.258 1.27 1.387-1.742 2.883-1.539 4.641-.91 4.57.215 11.922 1.418 15.391.656 1.641.219 3.484.363 5.215.289 1.836-2.34 2.641-3.34 1.164-.859-1.91-1.695-3.934-1.445-6.066.465-5.266-.07-9.727-.359-14.535-.238-2.039-3.137-2.055-4.461-1.098-1.711 1.531-.109 2.949-.574 4.973.285 6.305-.59 11.965-1.117 17.785-.035 4.129-3.512 3.207-2.828-.539zm-29.68.797c-1.598-.617-.52-2.98.512-3.25 1.656-8.383 2.844-17.367-.531-24.852 1.133-1.586 2.457-.512 7.922-2.133.363-.105.68-.734.934-1.008.578-.695 1.43-.504 1.75-.059.246.266.625.645 1.035.676 2.672.203 7.523-.137 8.559.527-.352.316-.969 1.023-1.184 1.703-.965 3.074-1.121 8.59-2.469 9.289-3.449.246-6 1.137-10.629 1.477-.324.27.223 1.219-.383 3.109 3.07-.793 8.777-1.641 13.383-.82-.094 2.441-2.141 6.539-2.148 9.613 1.543.938 1.254 2.449-2.559 2.57-3.973.598-8.031 1.047-11.496 2.504-.887.27-1.805.414-2.695.652zm12.195-7.246c1.211-.777 1.531-2.988 1.379-3.934-1.859-1.105-5.75-.023-7.824.102-.23 1.082-.879 4.594-.773 5.008 1.816.297 5.34-.891 7.219-1.176zm3.371-19.582c-4.418-.57-10.941 1.461-9.996.871-.512.047.813.965.324 4.051 2.008-.273 6.18-.641 8.688-1.273.902-.23.961-2.746.984-3.648zm0 0" fill="rgb(68.235294%,11.372549%,1.568627%)"/></svg>