<?xml version="1.0" encoding="UTF-8"?>
<svg xmlns="http://www.w3.org/2000/svg" xmlns:xlink="http://www.w3.org/1999/xlink" width="900" height="1200" viewBox="-450 -600 900 1200">
	<title>棋盤</title>
	<!-- 此字型為全字庫正楷體，中華民國國家發展委員會，CNS11643中文標準交換碼全字庫網站，https://www.cns11643.gov.tw/。 -->
	<rect width="900" height="1200" x="-450" y="-600" fill="#fffdd0"/>
	<g fill="none" stroke-width="4" stroke="#000">
		<rect width="816" height="916" x="-408" y="-458"/>
		<rect width="800" height="900" x="-400" y="-450"/>
	</g>
	<defs>
		<g id="mark4">
			<g id="mark2R">
				<path id="mark" d="M30,10H10V30" fill="none" stroke-width="4" stroke="#000"/>
				<use xlink:href="#mark" transform="rotate(-90,0,0)"/>
			</g>
			<g id="mark2L">
				<use xlink:href="#mark2R" transform="rotate(180)"/>
			</g>
		</g>
		<g id="mino32">
			<g id="mino16">
				<g id="line4">
					<path id="line" d="M0,0V400" stroke-width="4" stroke="#000"/>
					<use xlink:href="#line" x="100"/>
					<use xlink:href="#line" x="200"/>
					<use xlink:href="#line" x="300"/>
				</g>
				<use xlink:href="#line4" transform="rotate(90,200,200)"/>
				<use xlink:href="#mark2R" x="0" y="100"/>
				<use xlink:href="#mark4" x="200" y="100"/>
				<use xlink:href="#mark4" x="300" y="200"/>
				<use xlink:href="#mark2L" x="400" y="100"/>
				<path id="diagonal" d="M0,300 100,200" stroke-width="4" stroke="#000"/>
				<use xlink:href="#diagonal" transform="rotate(90,0,300)"/>
			</g>
			<use xlink:href="#mino16" transform="scale(-1,1)"/>
		</g>
		<g id="board">
			<g id="halfboard">
				<use xlink:href="#mino32" y="50"/>
				<g transform="scale(0.113)">
					<g transform="translate(-3805,2301)">
						<path d="m-39,-116c0,1 -1,6 -1,12c0,7 0,14 -2,20c-4,20 -5,23 -4,25c1,1 0,2 -1,2c-3,2 -4,6 -1,9c2,1 3,4 4,11c2,14 2,15 5,17c2,2 3,2 4,1c2,-1 3,-2 4,-3c1,-1 3,-2 14,-2c7,-1 13,-2 14,-2c3,-1 2,-5 0,-7c-2,-2 -2,-2 0,-6c0,-2 2,-6 4,-8c4,-6 4,-8 1,-11c-3,-3 -12,-7 -15,-7c-2,0 -5,1 -7,3c-5,2 -14,5 -17,5c-2,0 -1,-2 2,-6c1,-2 3,-6 4,-8c2,-4 3,-4 5,-4c2,1 8,0 14,0c12,-2 14,-2 14,-1c0,1 1,4 3,8l2,5 0,25c-1,15 -2,29 -3,35c-2,17 -2,18 -1,23c2,6 7,12 10,12c3,0 6,-4 6,-6c0,-2 0,-3 1,-3c1,-1 -1,8 -4,15c-2,3 -5,10 -8,15l-6,10 -4,-2c-7,-4 -13,-4 -23,-2l-8,2 0,-4c0,-2 0,-4 1,-4c0,0 6,-1 12,-1c13,-2 17,-4 17,-9c0,-2 -1,-3 -4,-4c-6,-4 -12,-5 -17,-3c-7,2 -9,1 -9,-1c0,-3 0,-3 3,-3c9,0 24,-3 26,-5c7,-6 -7,-15 -20,-11c-8,2 -9,2 -9,-2c0,-4 0,-4 12,-6c8,0 16,-2 19,-4c4,-2 4,-6 0,-9c-6,-3 -13,-4 -19,-3c-11,3 -11,3 -11,1c0,-8 -15,-19 -23,-17c-2,0 -3,0 -4,-2c0,-3 2,-10 6,-15c3,-4 2,-7 -4,-11c-2,-2 -5,-3 -6,-3c-1,0 -1,-1 1,-3c1,-3 1,-5 0,-21c-1,-15 -1,-18 -3,-20c-3,-2 -11,-5 -16,-5c-5,0 -7,1 -8,4c-1,2 0,4 2,8c2,3 3,6 2,6c0,0 -7,3 -15,5c-16,4 -18,5 -18,8c0,2 6,8 10,9c6,3 9,2 18,-2c4,-2 9,-4 10,-4c2,-1 3,-1 4,5c1,3 3,6 4,8c1,2 1,2 -1,3c-6,3 -13,5 -22,6c-6,0 -11,1 -12,1c-3,2 -2,7 1,9c2,2 3,4 5,11c3,12 5,16 10,16c2,0 3,-1 3,-3c2,-4 4,-2 4,3c-1,12 -17,33 -37,49c-9,7 -10,9 -7,12c3,1 3,1 8,-1c6,-2 14,-7 21,-12c3,-2 5,-4 6,-4c2,3 0,39 -3,51l-2,7 2,7c2,8 6,13 9,14c2,1 3,0 5,-2c4,-3 6,-11 6,-21l0,-6 6,-1c17,-3 49,-7 59,-7c2,0 2,0 -1,4c-3,2 -8,6 -12,9c-5,3 -8,7 -8,7c0,3 2,5 5,5c4,0 15,-5 22,-10c15,-9 28,-25 37,-44c3,-6 6,-12 7,-15c2,-3 3,-5 2,-7c-1,-3 -1,-4 1,-3c3,1 3,11 2,38c-1,29 -1,32 4,40c6,10 15,14 33,15c14,0 24,-1 32,-5c6,-3 14,-10 17,-14c1,-3 1,-3 -3,-13c-4,-7 -5,-12 -6,-17c-1,-10 -3,-13 -6,-13c-4,0 -5,2 -5,8c-2,12 -4,23 -6,26c-3,5 -7,6 -18,7c-14,0 -19,0 -22,-4l-3,-3 0,-17c1,-21 3,-33 6,-40c3,-5 3,-5 4,-3c2,4 6,6 9,4c3,-1 6,-6 8,-11c1,-4 1,-10 1,-38c0,-35 0,-41 4,-49c2,-5 2,-5 1,-8c-3,-3 -13,-10 -18,-11c-2,0 -6,0 -11,2c-4,1 -15,3 -24,5c-17,3 -18,3 -24,1c-5,-1 -6,-2 -6,-4c0,-3 -2,-5 -8,-8c-5,-3 -12,-3 -18,-1c-3,1 -6,2 -6,2c-1,0 1,-6 4,-10c1,-2 2,-4 2,-4c0,-3 -6,-9 -10,-11c-5,-2 -12,-3 -14,-1m106,48c1,1 1,5 1,9l1,8 -8,0c-4,0 -13,1 -22,2c-8,2 -14,3 -15,3c0,0 0,-4 1,-9l0,-9 4,0c2,0 8,-1 14,-2c11,-3 24,-4 24,-2m-87,25c0,2 0,5 -1,5c0,0 -2,1 -5,1l-4,1 0,-5c0,-6 0,-6 4,-7c6,-1 7,-1 6,5m-52,6c-1,2 -2,4 -2,5c-1,1 -11,3 -12,3c0,-1 0,-3 -1,-5l0,-4 6,-1c9,-3 9,-3 9,2m141,7l0,7 -4,-1c-5,-1 -5,-1 -23,2c-9,1 -17,2 -18,2c-1,0 -1,-2 -1,-6l1,-5 21,-4c12,-1 22,-3 23,-3c1,0 1,2 1,8m-127,12c0,1 2,4 3,9l4,7 -5,1c-2,0 -6,0 -7,1c-2,0 -2,0 -1,-2c2,-3 0,-7 -5,-12l-4,-4 4,0c7,-1 11,-1 11,0m126,16c0,4 0,8 -1,8c0,0 -2,0 -4,-1c-2,0 -9,0 -21,1c-10,1 -18,2 -19,2c-1,0 -1,-1 -1,-7c0,-7 0,-8 2,-7c2,0 11,-1 21,-2c10,-1 20,-2 21,-2l3,0 -1,8m-132,16c3,0 7,0 9,-1l4,-1 0,4c0,2 -1,4 -1,4c-1,1 -7,1 -14,2c-10,1 -12,1 -13,0c-3,-2 -2,-2 1,-6c3,-3 3,-4 6,-3c1,1 5,1 8,1m133,9c-1,0 -1,-1 -1,-2c-1,-1 -1,-1 0,0c1,0 1,1 1,2m-120,15c0,3 0,3 -9,4c-15,2 -15,2 -15,-2c0,-2 1,-3 8,-3c4,-1 8,-1 8,-1c1,-1 3,-1 5,-1c3,0 3,0 3,3m0,26c-1,0 -22,4 -24,4c-1,0 -1,-2 -1,-5l0,-5 12,-1l13,-2 0,4c0,2 0,4 0,5"/>
						<path transform="translate(0,270)" d="m52,-121c-3,1 -5,3 -5,6c0,1 1,4 3,7c2,5 2,8 3,22c1,8 1,16 0,16c-1,1 -28,6 -32,6c-1,0 -1,-1 -1,-5c1,-3 2,-9 3,-12c3,-9 2,-11 -5,-14c-9,-5 -20,-7 -23,-5c-3,2 -3,4 0,11c2,5 2,9 3,18l0,12 -9,1c-5,1 -10,2 -11,2c-3,2 -3,5 0,8c3,3 13,7 17,7l3,0 0,39l0,39 -3,0c-2,1 -10,2 -19,2c-14,1 -17,2 -19,3c-2,3 -2,3 -1,6c2,3 11,8 18,10c4,1 6,1 15,-2c14,-4 14,-4 13,1c-1,9 -4,14 -24,34c-10,10 -18,19 -18,20c0,3 4,3 9,1c12,-4 32,-18 46,-30c4,-4 10,-9 12,-11c4,-3 4,-4 4,-6c-1,-4 -6,-8 -12,-11c-3,-2 -5,-3 -4,-3c0,0 9,-1 18,-2c24,-3 44,-4 67,-3c23,1 25,1 26,-5c0,-3 -4,-8 -12,-13c-8,-4 -11,-4 -21,-2c-5,1 -12,2 -15,2l-6,1 0,-7c0,-4 1,-22 1,-40c1,-19 2,-34 2,-35c0,-2 1,-2 9,-2c13,0 21,-1 22,-3c3,-4 -1,-10 -9,-14c-6,-4 -14,-4 -19,-3l-2,1 0,-10c1,-6 2,-13 2,-16c3,-7 2,-9 -1,-12c-5,-4 -10,-7 -17,-8c-3,-1 -6,-2 -6,-2c0,0 -1,0 -2,1m-125,17c-3,3 -3,4 0,11c4,8 5,17 5,35l0,16 -5,1c-5,1 -28,5 -35,6c-11,1 -11,9 1,12c7,2 15,2 25,1c5,-1 9,-2 9,-1c1,0 -4,11 -10,23c-11,22 -22,39 -35,54c-6,7 -7,9 -6,11c5,9 33,-15 50,-42l4,-6 -1,9c-1,23 -3,40 -5,47c-3,10 -2,17 3,27c3,6 4,8 6,8c3,1 4,1 6,-2c2,-2 5,-6 6,-10c2,-5 2,-6 3,-41c0,-20 0,-39 1,-43l0,-6 4,6c4,7 9,11 13,11c1,0 3,-1 5,-3c3,-2 3,-4 3,-8c0,-6 -3,-12 -7,-15c-3,-3 -15,-9 -17,-9c-1,0 -1,-2 -1,-8l1,-7 11,-4c15,-4 16,-4 17,-7c2,-3 -1,-7 -8,-10c-6,-2 -11,-3 -16,0c-2,0 -3,1 -4,1c0,-1 2,-30 3,-35c3,-9 2,-12 -1,-15c-5,-4 -15,-9 -19,-9c-2,0 -4,1 -6,2m126,62c0,6 0,10 0,10c0,0 -2,0 -4,-1c-2,-1 -6,0 -15,2c-6,2 -12,3 -13,3c-2,0 -2,-1 -2,-9l0,-10 15,-2c9,-2 16,-3 17,-3c2,0 2,1 2,10m0,32l0,8 -6,0c-4,0 -12,1 -17,2c-6,1 -12,2 -12,2c0,0 0,-4 0,-8l0,-8 3,0c1,1 9,0 16,-1c7,-2 14,-3 15,-3c1,0 1,2 1,8m-1,32l0,10 -16,1c-8,1 -16,1 -17,2c-2,0 -2,-1 -2,-9l0,-10 5,0c3,0 10,-1 16,-1c16,-3 14,-3 14,7m-6,35c-1,2 0,4 8,13c4,4 10,11 14,17c10,14 15,19 19,22c5,4 10,4 13,0c2,-2 2,-3 2,-10c0,-10 -2,-15 -10,-23c-13,-13 -43,-25 -46,-19"/>
						<path transform="translate(0,540)" d="m69,-92c-16,3 -48,7 -92,12c-62,8 -64,8 -66,10c-3,3 0,9 8,12c8,3 16,4 28,1c6,-1 19,-3 29,-4c9,-2 19,-3 21,-4l3,0 -1,5c-3,10 -15,29 -27,45c-9,10 -31,32 -41,41c-5,4 -15,12 -23,17c-7,6 -13,11 -14,12c0,3 2,5 5,5c7,0 31,-13 51,-27c12,-10 36,-32 44,-43l6,-7 0,5c1,6 -1,54 -2,66c-1,5 -2,14 -4,20c-3,13 -3,17 2,28c5,11 11,15 16,10c5,-6 6,-20 8,-73c0,-16 1,-30 1,-31c1,-2 1,-2 9,4c4,3 15,11 23,18c27,24 35,29 43,29c3,0 5,-1 7,-3c3,-3 3,-3 3,-9c0,-8 -4,-17 -11,-23c-13,-12 -39,-23 -70,-30l-3,-1 0,-7c1,-8 0,-12 -5,-18c-3,-2 -4,-4 -3,-5c0,-1 3,-6 7,-10c7,-10 7,-13 5,-17l-2,-3 4,0c5,-1 32,-3 52,-4c17,0 21,-1 24,-4c1,-3 1,-3 0,-6c-3,-5 -15,-12 -24,-13c-2,0 -8,1 -11,2"/>
						<path transform="translate(0,810)" d="m-77,-102c-1,0 -2,2 -2,3c0,4 10,26 13,31c1,2 2,3 2,4c-1,0 -37,7 -47,8c-5,0 -10,1 -11,2c-4,3 0,9 10,14c7,3 13,4 17,2c9,-4 40,-11 62,-14c8,-1 15,-2 15,-3c1,0 2,-1 2,-3c1,-3 0,-6 -7,-9c-5,-2 -6,-2 -13,-2l-9,1 1,-7c0,-8 -1,-11 -7,-17c-5,-4 -20,-12 -22,-12c-1,0 -3,1 -4,2m138,3c-9,2 -40,8 -60,11c-16,3 -19,4 -19,8c0,2 4,6 10,8c7,3 13,3 21,1c3,-1 6,-2 6,-2c1,0 1,6 -1,17l-1,11 -13,1c-7,1 -14,3 -16,3c-8,2 -5,9 4,11c4,2 7,2 12,1c11,-2 10,-3 7,11c-2,7 -3,12 -4,13c0,0 -8,1 -17,2c-9,1 -18,3 -20,3c-3,2 -4,2 -4,0c0,-2 -6,-5 -12,-6c-5,-1 -8,-1 -12,1c-3,0 -11,2 -18,4c-16,3 -18,3 -18,6c0,5 10,11 18,10c7,-1 39,-8 40,-9c1,-1 2,0 3,1c3,4 18,10 23,9c3,-2 29,-5 49,-7c23,-2 50,-4 64,-4c6,0 12,0 14,-1c8,-2 7,-8 -2,-14c-8,-6 -11,-7 -25,-5c-6,1 -12,2 -13,2c-1,-1 5,-15 9,-22c4,-6 4,-8 -1,-12c-4,-4 -16,-10 -19,-10c-1,0 -4,1 -6,2c-5,2 -18,5 -20,5c-1,-1 1,-9 5,-16c2,-4 2,-4 1,-7c-1,-2 -2,-3 -2,-4c1,0 22,-3 34,-4c11,0 13,-1 15,-3c2,-2 2,-2 1,-5c-3,-6 -15,-12 -23,-12c-2,0 -7,1 -10,2m-1,64c0,1 -1,7 -3,13c-2,10 -3,12 -4,12c-5,1 -24,3 -25,3c0,-1 6,-26 7,-27c1,-1 15,-3 20,-3c4,0 5,0 5,2m-118,3c-7,3 -25,7 -28,7c-2,0 -4,1 -5,2c-5,4 1,10 11,12c6,0 42,-8 45,-11c3,-3 2,-6 -3,-9c-7,-3 -13,-3 -20,-1m1,55c-4,2 -12,4 -18,6c-9,2 -11,2 -17,1c-4,-1 -6,-1 -8,1c-3,2 -4,4 -2,6c1,1 3,4 4,6c2,2 3,7 5,17c4,18 5,20 8,23c3,3 6,3 9,-1c2,-2 3,-3 14,-4c7,-1 15,-2 17,-2c4,0 5,-1 7,-2c3,-3 3,-4 -1,-7l-2,-3 3,-9c2,-6 5,-12 7,-15c4,-6 4,-9 0,-12c-5,-4 -14,-8 -17,-8c-2,0 -5,1 -9,3m121,0c-2,1 -15,3 -29,4l-26,4 -6,-2c-9,-3 -16,-2 -16,3c0,1 1,4 3,6c3,4 3,6 6,27c2,13 3,24 4,25c1,2 6,6 8,6c1,0 3,-1 4,-2c2,-3 4,-3 22,-4c10,-1 23,-2 29,-3c13,0 15,-1 16,-3c1,-2 1,-3 -1,-6l-2,-4 4,-9c2,-4 5,-11 8,-15c6,-8 7,-10 5,-13c-2,-4 -12,-11 -17,-13c-5,-2 -8,-2 -12,-1m-120,28c-1,6 -2,10 -2,11c-1,0 -16,3 -16,3c0,-1 -3,-22 -3,-23c0,0 5,-1 11,-2c8,-1 11,-1 11,0c0,1 -1,6 -1,11m117,-7c0,4 -4,24 -4,25c-1,0 -25,4 -35,5l-7,0 0,-13c-1,-7 -1,-13 -2,-14c0,-1 1,-2 7,-2c3,-1 10,-2 15,-3c8,-1 13,-2 21,-2l5,0 0,4"/>
						<path transform="translate(0,1080)" d="m-9,-129c-2,2 -2,2 -1,10c1,8 1,21 -1,25c0,3 0,3 -29,6c-40,5 -41,5 -41,9c0,5 6,10 16,12c4,1 7,1 15,-1c18,-3 35,-6 36,-6c0,1 -3,19 -4,20c-1,0 -5,1 -9,2c-8,1 -9,1 -15,-1c-9,-2 -12,-3 -15,0c-3,2 -3,5 0,12c2,5 2,9 3,36c1,17 1,36 1,44l0,13 -4,0c-2,1 -13,1 -24,2c-12,1 -23,1 -25,2c-4,0 -6,3 -3,8c1,3 3,4 8,7c10,5 14,5 33,1c19,-4 27,-5 25,-3c-1,1 -3,3 -4,6c-4,8 -22,24 -41,36c-6,4 -8,5 -8,7c0,5 2,5 9,4c16,-5 37,-14 54,-25c5,-4 11,-7 13,-8c1,-1 3,-3 4,-4c1,-3 1,-4 -1,-6c-2,-3 -15,-10 -20,-11l-4,0 5,-1c18,-2 51,-4 93,-5c51,-1 52,-1 53,-7c0,-2 -1,-3 -5,-7c-5,-5 -15,-10 -22,-11c-3,0 -10,1 -19,2c-8,2 -15,3 -15,2c0,0 1,-17 2,-39c2,-34 2,-39 4,-45c2,-5 2,-6 1,-8c-3,-4 -8,-8 -16,-11c-8,-3 -10,-4 -16,-1c-6,2 -20,5 -21,5c0,-1 4,-17 5,-18c1,-1 18,-3 39,-4c27,-1 32,-2 34,-4c5,-4 -1,-11 -11,-16c-7,-3 -12,-3 -35,1c-10,2 -19,3 -20,3c-3,0 -2,-2 2,-11c2,-5 3,-8 3,-10c-1,-3 -6,-7 -14,-10c-8,-3 -13,-4 -15,-2m35,85c1,2 1,10 0,10c0,0 -3,0 -6,-1c-5,-1 -7,-1 -13,1c-9,2 -35,7 -37,7c-1,0 -2,-7 0,-9c0,0 7,-2 16,-3c9,-2 19,-4 23,-4c9,-2 15,-2 17,-1m1,31l0,6 -3,-1c-5,-1 -14,0 -31,3c-9,2 -19,4 -21,4l-4,0 0,-5l0,-5 6,0c3,0 12,-1 19,-2c7,-2 17,-4 21,-4c5,-1 10,-2 10,-2c0,-1 1,-1 2,-1c1,0 1,2 1,7m0,25l0,5 -5,-1c-3,0 -10,1 -21,3c-13,2 -30,5 -33,5c0,0 0,-2 0,-5l0,-4 7,0c9,0 47,-6 52,-8c0,0 0,2 0,5m0,26c0,4 0,6 -1,6c-1,0 -14,1 -29,3c-15,1 -28,2 -29,2c-1,0 -1,-2 -1,-4l0,-5 10,0c5,-1 18,-3 29,-5c11,-1 20,-3 20,-3c1,0 1,3 1,6m-11,28c-1,2 1,7 8,12c2,2 10,10 18,19c13,15 20,21 25,21c6,0 11,-10 9,-18c-3,-11 -9,-18 -25,-25c-20,-10 -33,-13 -35,-9"/>
						<path transform="translate(0,1350)" d="m41,-112c-7,3 -41,10 -56,13c-7,1 -19,3 -28,3c-8,1 -16,3 -17,3c-2,2 -1,6 1,8c5,4 13,6 23,5c6,0 8,0 9,1c1,1 1,6 1,12l0,11 -3,0c-3,1 -54,7 -68,9c-10,1 -12,2 -12,6c0,3 8,10 14,11c7,3 10,2 23,-1c13,-3 42,-9 43,-8c0,1 -4,21 -6,25l-2,3 -20,3c-17,3 -21,3 -22,5c-2,2 -2,2 -1,5c2,3 12,7 19,7c2,0 7,-1 11,-1c4,-1 7,-2 7,-1c1,0 -4,11 -10,20c-15,23 -28,35 -55,51c-14,9 -16,11 -12,14c3,3 27,-5 43,-14c10,-6 20,-15 29,-25c3,-4 6,-7 6,-7c0,0 1,4 1,8c1,3 3,13 3,22c3,21 5,28 11,32c3,2 7,0 8,-5c1,-4 2,-4 5,-4c5,0 77,-6 81,-7c3,0 4,-1 4,-3c0,-2 -1,-4 -2,-6l-3,-3 5,-15c4,-12 6,-17 9,-22c3,-3 5,-7 5,-8c0,-2 -6,-8 -14,-13c-9,-6 -10,-6 -29,-2c-38,9 -73,14 -73,10c0,-1 1,-3 3,-5c1,-3 4,-9 6,-13l4,-9 7,-1c9,-1 43,-4 57,-5c10,0 13,-1 13,-6c0,-1 -1,-3 -3,-5l-3,-2 4,-16l4,-15 10,-1c5,0 18,0 28,0c15,1 18,1 21,0c2,-1 3,-3 3,-3c1,-6 -3,-10 -11,-14c-6,-3 -7,-3 -15,-3c-5,0 -13,0 -19,1c-9,1 -11,1 -11,0c0,-3 5,-16 8,-21c5,-6 5,-9 0,-14c-4,-4 -19,-11 -24,-12c-3,0 -7,1 -10,2m2,22c0,1 -3,26 -4,27c0,0 -39,4 -40,4c0,-1 1,-4 2,-8c2,-4 3,-8 3,-9c0,-1 -2,-4 -3,-6l-4,-3 7,-1c25,-6 38,-7 39,-4m-7,45c0,0 -5,25 -5,26c-1,0 -43,6 -44,5c0,0 7,-27 8,-28c0,0 9,-1 20,-2c11,-1 20,-2 20,-2c1,0 1,0 1,1m11,82c3,0 2,6 -1,23c-2,12 -3,14 -4,15c-5,2 -59,9 -60,8c0,-1 -3,-36 -3,-37c1,0 41,-7 51,-8c13,-2 15,-2 17,-1"/>
						<path transform="translate(0,1620)" d="m22,-109c-19,5 -43,8 -78,12c-7,0 -10,2 -10,4c0,3 6,8 11,11c7,3 9,4 17,2c7,-2 50,-10 59,-11c6,0 7,0 7,1c0,3 -28,36 -30,36c-3,-2 -10,-2 -12,-1c-3,2 -3,4 1,11c5,6 6,10 7,20l0,8 -5,0c-12,2 -80,7 -87,7c-20,0 -24,4 -14,13c5,5 13,9 19,9c1,0 6,-1 11,-2c18,-4 55,-9 71,-9l6,0 0,24c-1,34 -4,51 -10,52c-1,0 -6,-1 -11,-2c-6,-2 -9,-2 -11,-1c-4,2 -3,5 8,17c6,6 12,13 14,15c5,6 8,7 13,5c3,-2 8,-9 11,-16c6,-13 9,-47 7,-78c0,-9 0,-17 0,-17c0,0 22,-1 48,-1c47,0 48,-1 51,-3c1,-1 3,-2 3,-3c1,-6 -7,-12 -19,-16c-9,-3 -12,-4 -27,-1c-7,1 -21,3 -30,3c-10,1 -21,2 -23,3l-5,0 0,-5c0,-6 -1,-17 -2,-21c-1,-2 0,-4 14,-14c19,-15 23,-18 32,-23c9,-5 12,-8 11,-12c-2,-4 -4,-7 -11,-11c-8,-6 -16,-9 -21,-9c-3,0 -9,1 -15,3"/>
					</g>
					<g transform="translate(3805,2301)">
						<path d="m-54,-108l-2,3 1,5c2,4 2,8 3,23l0,19 -5,1c-2,0 -9,2 -14,3c-14,2 -16,3 -16,6c0,2 1,4 4,5c6,4 12,5 22,4c4,-1 8,-2 9,-2c1,0 1,3 1,10c0,10 0,10 -2,10c-5,2 -49,9 -57,10c-5,1 -11,2 -12,3c-5,3 -1,9 9,14c3,1 6,2 8,2c2,0 9,-2 16,-4c13,-4 35,-9 36,-8c1,1 2,20 2,32l0,11 -6,-3c-3,-2 -6,-3 -6,-4c-1,0 0,-2 2,-4c4,-5 4,-8 -1,-12c-8,-7 -19,-11 -22,-8c-1,1 -2,5 -2,9c-3,18 -13,38 -29,57c-3,3 -7,8 -8,9c-1,3 -1,3 1,5c3,3 5,2 15,-5c11,-8 21,-18 28,-29c3,-5 7,-10 7,-10c1,-1 14,7 30,18c33,22 54,35 72,43c20,10 25,10 58,5c36,-7 37,-7 37,-12c0,-4 -4,-5 -25,-7c-33,-5 -57,-10 -77,-17c-11,-4 -34,-14 -47,-21c-11,-5 -10,-3 -8,-18c0,-6 0,-7 2,-7c1,1 25,-3 29,-5c4,-1 6,-5 4,-8c-3,-4 -9,-7 -14,-7c-2,0 -7,1 -11,3c-5,1 -8,2 -9,2c0,-1 0,-4 1,-9c2,-7 2,-7 0,-10c-1,-2 -2,-3 -1,-3c2,0 38,-5 40,-6c3,-1 3,-7 -1,-10c-6,-4 -19,-5 -31,-2c-4,1 -8,2 -8,2c-1,0 0,-20 0,-21c1,0 6,-1 13,-2c14,-3 20,-5 21,-8c1,-4 -3,-8 -10,-10c-7,-2 -10,-2 -16,0c-3,1 -6,2 -6,2c-2,0 -1,-19 2,-28c1,-5 1,-7 0,-9c-1,-3 -12,-8 -19,-9c-5,0 -6,0 -8,2m114,38c-4,2 -9,4 -17,6l-12,3 -6,-3c-13,-5 -19,-1 -15,9c2,5 2,8 2,44c0,32 0,39 2,44c3,10 10,18 23,23c8,3 28,4 40,2c18,-4 30,-11 32,-19c0,-3 -1,-5 -3,-11c-1,-3 -4,-10 -5,-14c-3,-10 -3,-11 -6,-11c-4,0 -5,2 -6,11c-2,12 -5,18 -13,22c-5,2 -6,2 -17,2c-26,0 -31,-5 -30,-31c1,-8 1,-14 1,-14c1,0 17,-2 34,-4c9,-1 12,-2 13,-3c1,-2 1,-3 -1,-6c-1,-3 -1,-4 2,-13c4,-12 6,-17 10,-21c4,-6 1,-11 -9,-16c-10,-5 -13,-5 -19,0m0,21c0,3 -1,9 -2,14l-1,9 -13,2c-7,1 -13,2 -13,2c0,-1 2,-17 3,-21l1,-5 8,-2c10,-3 12,-4 15,-4l3,0 -1,5"/>
						<path transform="translate(0,270)" d="m15,-113c-11,13 -44,30 -69,36c-11,3 -13,3 -14,6c-1,2 -1,2 1,4c2,2 3,2 11,2c13,-1 26,-4 36,-6l8,-3 1,4c3,13 4,21 1,21c-3,1 -44,7 -48,7c-8,0 -12,4 -9,10c5,6 15,7 43,4c9,-1 16,-2 17,-2c0,1 1,6 1,12c0,8 0,10 -1,10c-1,0 -10,1 -20,2c-26,3 -61,6 -67,6c-15,0 -16,8 -2,15c9,4 13,4 35,0c13,-2 48,-7 54,-7c2,0 2,0 2,17c-2,29 -5,57 -7,59c-1,0 -6,-1 -12,-3c-6,-1 -12,-2 -12,-2c-2,1 -2,5 -1,7c1,1 5,4 9,8c4,4 9,9 12,13c3,3 6,6 8,7c9,4 18,-11 21,-35c1,-5 1,-24 2,-41l0,-32 8,0c4,-1 22,-1 40,-2c39,0 41,0 43,-4c1,-2 1,-2 -1,-6c-1,-2 -3,-4 -8,-7c-10,-5 -15,-5 -29,-3c-12,2 -52,6 -53,6c0,0 0,-6 -1,-12l0,-12 8,-1c26,-4 41,-8 42,-12c1,-5 -9,-12 -18,-12c-2,0 -10,1 -16,3c-18,4 -17,5 -17,-10c-1,-9 -1,-13 -3,-14c-1,-2 -1,-2 4,-4c5,-3 20,-8 25,-10c1,-1 3,-2 4,-3c3,-5 -5,-14 -16,-19c-5,-3 -7,-2 -12,3"/>
						<path transform="translate(0,540)" d="m-38,-116c-2,1 -2,3 -3,10c-1,10 -2,13 -9,27c-7,14 -14,25 -21,35c-3,4 -6,8 -6,9c-1,3 1,6 4,6c2,0 3,0 4,4c2,4 5,15 5,19c0,3 0,3 -12,4c-11,1 -11,2 -12,4c-2,4 0,6 8,10c5,3 8,3 13,3l6,0 1,11c1,7 2,12 3,13c0,1 -17,3 -40,4c-11,1 -13,1 -15,3c-2,3 2,9 11,13c7,3 12,3 22,1c28,-7 71,-10 144,-12c23,-1 41,-1 43,-2c4,-1 5,-5 3,-9c-2,-3 -15,-10 -21,-11c-4,0 -20,2 -32,4l-3,0 3,-15l2,-15 4,0c2,-1 7,-1 12,-1c9,0 14,-2 15,-6c1,-5 -12,-14 -22,-16c-2,0 -4,0 -4,0c0,-1 1,-3 3,-10c1,-2 0,-3 -1,-5c-5,-6 -19,-12 -24,-10c-4,1 -4,4 -3,11c1,5 2,9 1,13l0,6 -7,1l-7,1 0,-8c2,-12 1,-13 0,-15c-2,-2 -13,-5 -19,-5c-7,0 -8,2 -5,12c2,5 2,8 2,13l0,7 -7,0c-3,1 -6,1 -7,1c0,-1 0,-5 0,-11c0,-10 -1,-10 -3,-12c-3,-3 -15,-5 -18,-4c-5,2 -6,3 -3,12c2,5 3,11 3,13l1,5 -4,0c-2,1 -5,1 -7,1l-3,0 0,-10c0,-10 0,-10 -3,-12c-1,-2 -4,-3 -7,-4c-3,-1 -6,-1 -7,-2c-2,0 0,-2 5,-6c3,-3 8,-7 10,-9c3,-4 3,-4 8,-3c6,1 8,1 37,-5c11,-2 27,-5 37,-6c20,-2 25,-3 26,-6c3,-5 -1,-9 -12,-13c-8,-3 -14,-3 -24,0c-19,6 -56,15 -58,14c0,0 3,-8 9,-16c9,-16 9,-16 8,-19c-2,-4 -5,-7 -12,-11c-7,-3 -9,-4 -12,-1m77,120c0,2 -1,9 -1,15c-1,7 -2,12 -2,12c0,1 -3,1 -6,1l-5,1 0,-11c1,-6 1,-12 1,-15l0,-5 5,0c3,0 6,-1 7,-1c2,0 2,1 1,3m-34,30c0,0 -3,1 -7,1l-6,0 0,-8c0,-4 0,-10 -1,-14l0,-7 7,-1l8,0 0,14c0,8 0,15 -1,15m-31,-11c1,7 1,13 1,13c0,1 -4,1 -7,1l-7,1 -1,-7c-1,-4 -1,-10 -1,-14l-1,-6 5,-1c10,-2 10,-3 11,13m83,36c-3,1 -3,5 3,15c13,20 19,28 24,31c4,2 5,2 8,1c8,-5 10,-18 2,-28c-3,-6 -14,-13 -24,-17c-9,-3 -9,-3 -13,-2m-44,1c-3,2 -2,8 2,23c4,11 6,14 8,17c7,6 15,3 18,-7c1,-5 1,-6 -1,-13c-5,-11 -21,-24 -27,-20m-49,3c-3,2 -2,4 1,19c6,20 10,26 17,25c7,-2 11,-8 10,-18c-1,-11 -8,-20 -19,-26c-6,-2 -7,-3 -9,0m-38,0c0,0 -3,3 -4,7c-2,3 -7,10 -10,14c-8,10 -8,12 -6,19c0,3 2,7 4,8c3,3 4,3 7,3c7,-2 14,-10 18,-24c2,-10 1,-21 -4,-25c-2,-3 -3,-3 -5,-2"/>
						<path transform="translate(0,810)" d="m66,-83c-10,2 -33,5 -89,11l-55,5 -7,-2c-12,-3 -18,-2 -18,3c0,1 2,5 3,9c6,11 8,22 13,82c1,24 3,46 4,47c2,11 5,15 11,15c3,-1 7,-6 7,-10c0,-2 0,-2 4,-2c6,0 33,-2 70,-4c19,-1 33,-2 33,-1c0,0 3,6 5,12c5,14 8,16 14,14c7,-2 13,-12 18,-27c3,-9 7,-33 9,-45c1,-18 7,-63 9,-68c0,-4 2,-9 4,-12c2,-3 3,-6 3,-7c0,-3 -3,-7 -10,-12c-12,-9 -18,-11 -28,-8m0,20c3,1 3,1 3,13c0,27 -6,82 -11,99l-2,7 -5,-3c-7,-3 -16,-3 -39,-1c-8,1 -26,3 -39,3c-13,1 -27,2 -31,3l-7,0 -1,-19c-1,-10 -2,-34 -4,-54c-2,-19 -3,-35 -3,-36c2,-1 98,-11 118,-12c8,0 15,-1 17,-1c1,0 3,0 4,1m-62,28c-5,1 -15,3 -21,4c-12,2 -13,2 -19,0c-8,-2 -11,-2 -13,0c-3,2 -2,4 1,8c3,4 5,10 8,28c2,10 3,18 4,19c2,4 5,7 8,7c2,0 6,-4 6,-6c0,-1 2,-2 5,-2c2,0 10,-1 17,-2c7,0 15,-1 18,-1c8,0 12,-4 7,-9c-2,-3 4,-22 10,-29c5,-6 2,-11 -8,-16c-8,-4 -12,-4 -23,-1m5,17c0,2 -1,8 -2,13c-1,5 -2,9 -2,9c0,1 -26,4 -27,3c-1,0 -3,-24 -3,-24c1,-1 28,-5 31,-5l4,0 -1,4"/>
						<path transform="translate(0,1080)" d="m-24,-107c-3,1 -5,3 -5,6c0,1 1,5 3,9c2,6 3,10 4,15c0,7 -1,44 -2,45c0,0 -48,6 -59,8c-11,1 -12,6 -5,11c2,2 7,4 10,5l5,2 10,-2c10,-2 33,-6 35,-6c0,0 0,3 -5,14c-9,24 -18,38 -38,58c-15,16 -19,19 -36,29c-6,4 -11,8 -12,9c0,1 0,3 0,4c1,2 1,2 5,2c10,-2 38,-15 52,-25c11,-7 21,-18 31,-31c9,-13 14,-21 19,-35c2,-6 5,-11 5,-11c0,0 4,7 9,16c18,32 42,68 50,74c7,4 11,5 25,6c14,0 35,-2 39,-4c3,-2 5,-5 4,-7c0,-1 -7,-5 -15,-9c-17,-8 -35,-19 -46,-27c-12,-9 -33,-32 -45,-49c-6,-8 -11,-15 -12,-16c0,-2 10,-3 41,-5c27,-2 30,-2 32,-7c1,-2 1,-2 -2,-5c-3,-4 -10,-7 -17,-9c-5,-2 -7,-2 -15,0c-7,2 -36,6 -39,6c-1,0 -1,-2 -1,-5c1,-3 1,-12 2,-21c1,-9 2,-17 3,-21c1,-4 2,-8 2,-10c0,-5 -9,-11 -21,-14c-8,-1 -9,-1 -11,0"/>
						<path transform="translate(0,1350)" d="m-19,-109c-4,2 -5,5 -2,13c4,8 5,16 5,36l1,17 -39,6c-21,3 -40,6 -41,7c-6,3 -3,8 6,12c9,4 13,5 26,2c11,-3 46,-9 46,-9c2,2 -4,31 -7,41l-2,5 -11,-9c-15,-12 -16,-12 -29,-12c-8,0 -10,0 -12,1c-2,3 -3,6 0,8c1,1 5,3 9,4c4,2 9,4 12,6c6,3 15,11 19,16l3,4 -5,6c-11,15 -37,33 -62,43c-14,5 -15,6 -15,10c1,4 4,5 19,2c23,-6 37,-11 54,-23c7,-4 19,-15 23,-20l2,-3 7,6c3,4 14,14 22,22c28,27 32,29 55,30c12,0 17,0 27,-2c22,-4 25,-5 25,-10c0,-3 -3,-5 -17,-8c-15,-4 -30,-9 -47,-17c-16,-7 -23,-10 -47,-28l-14,-10 3,-6c6,-11 12,-36 14,-52c0,-8 -4,-7 34,-10c30,-2 33,-3 33,-7c0,-5 -8,-12 -18,-16c-5,-1 -7,-1 -16,1c-8,2 -31,6 -32,6c0,-1 2,-34 4,-39c2,-11 2,-12 0,-15c-3,-3 -9,-5 -18,-7c-8,-2 -11,-2 -15,-1"/>
						<path transform="translate(0,1620)" d="m-27,-120c-1,0 -3,2 -4,3c-1,2 -1,3 1,8c3,8 5,22 5,37l0,14 -17,2c-10,1 -19,2 -21,3c-6,0 -8,2 -8,5c0,3 4,7 10,9c5,1 7,1 21,0c8,0 15,-1 15,-1c0,1 -3,34 -4,34c-1,1 -31,5 -50,6c-15,1 -19,2 -19,6c0,5 12,13 19,13c2,0 8,-1 13,-2c5,0 15,-2 21,-3c9,-1 12,-1 12,-1c0,3 -5,16 -8,22c-13,25 -33,44 -69,63c-8,4 -8,4 -8,7c1,4 5,5 14,2c26,-7 43,-16 59,-32c14,-14 23,-28 29,-45c2,-5 3,-9 3,-9c1,0 6,9 13,19c17,28 30,46 46,63c9,9 12,10 28,10c13,0 37,-2 42,-4c3,-1 4,-5 2,-8c-1,-1 -6,-3 -10,-5c-25,-11 -51,-26 -63,-36c-13,-10 -30,-28 -43,-45l-4,-5 3,0c5,-1 43,-4 59,-4c14,-1 18,-2 19,-5c2,-5 -4,-11 -16,-15c-8,-2 -10,-2 -22,0c-8,2 -39,6 -44,6c-3,0 -3,0 -3,-2c1,-1 1,-9 2,-17c1,-8 1,-15 2,-15c0,-1 7,-2 16,-3c8,-2 18,-4 22,-5c15,-3 15,-10 2,-16c-8,-4 -11,-4 -27,0c-7,2 -12,3 -13,3c-1,-1 2,-31 4,-38c2,-6 2,-7 1,-9c-2,-4 -6,-5 -14,-8c-10,-2 -13,-3 -16,-2"/>
					</g>
				</g>
			</g>
			<use xlink:href="#halfboard" transform="rotate(180)"/>
		</g>
	</defs>
	<use xlink:href="#board"/>
	<g transform="scale(0.267)">
		<g transform="translate(0,-2097) rotate(180)">
			<path transform="translate(1498,0)" d="m-2,-120c-10,9 -20,12 -41,13l-14,0 0,8l0,7 20,0c11,0 20,0 21,1c3,2 3,4 3,91c0,55 0,87 -1,89c-2,5 -4,5 -25,6l-19,0 0,8l0,7 58,0l58,0 0,-7l0,-8 -18,0c-10,0 -20,0 -22,-1c-6,-2 -5,5 -6,-111l0,-106 -5,0c-4,0 -5,1 -9,3"/>
			<path transform="translate(1124,0)" d="m-18,-121c-33,7 -52,31 -51,64c1,16 6,23 17,24c10,1 16,-5 16,-13c0,-6 -3,-10 -9,-13c-8,-4 -8,-3 -7,-11c0,-6 0,-7 3,-12c4,-8 10,-12 18,-16c8,-4 17,-6 28,-6c15,0 25,4 35,14c4,4 6,7 8,12c5,14 3,27 -4,42c-6,11 -13,19 -38,37c-29,22 -47,41 -57,58c-7,13 -13,35 -13,47l0,4 70,0l69,0 0,-2c0,-1 1,-14 2,-27c1,-14 2,-27 2,-28c0,-2 0,-2 -6,-2c-4,0 -7,0 -7,0c0,2 -6,28 -7,30c-2,5 -4,5 -55,5l-47,0 0,-3c1,-5 5,-15 9,-22c2,-3 9,-11 16,-18c11,-12 15,-14 39,-30c36,-25 47,-36 54,-56c2,-7 2,-10 2,-21c0,-11 0,-13 -2,-20c-8,-19 -21,-30 -42,-36c-12,-3 -32,-4 -43,-1"/>
			<path transform="translate(749,0)" d="m-18,-122c-13,3 -27,10 -34,18c-8,10 -12,23 -10,34c1,3 2,8 3,9c2,6 11,11 17,11c3,0 10,-4 11,-7c1,-1 2,-5 2,-7c0,-6 -3,-10 -10,-13c-5,-2 -5,-2 -5,-7c0,-9 8,-17 20,-21c9,-2 30,-2 37,1c16,6 23,18 22,41c-1,10 -1,12 -3,17c-7,15 -24,24 -43,24l-5,0 0,8l0,8 11,0c6,1 13,2 16,2c13,4 23,12 27,22c4,12 5,32 1,46c-3,11 -14,23 -27,28c-7,3 -22,4 -31,2c-16,-3 -30,-15 -30,-27c0,-3 1,-3 5,-6c3,-2 7,-5 8,-7c5,-10 -6,-21 -18,-19c-9,2 -14,9 -15,21c-1,19 11,37 31,47c12,6 26,8 41,7c21,-2 36,-9 48,-21c13,-13 18,-26 18,-45c0,-12 -2,-19 -6,-29c-4,-9 -16,-20 -26,-26l-8,-4 6,-3c30,-19 37,-60 15,-85c-9,-9 -21,-15 -36,-18c-9,-2 -23,-2 -32,-1"/>
			<path transform="translate(375,0)" d="m-26,-41l-53,83 0,6l0,7 50,0l49,0 0,16c0,12 -1,17 -2,19c-3,4 -8,5 -20,5l-11,0 0,8l0,7 43,0l43,0 0,-7l0,-8 -10,0c-12,-1 -15,-2 -17,-7c-1,-1 -1,-9 -1,-18l0,-15 17,0l17,0 0,-7l0,-8 -17,0l-17,0 0,-81l0,-82 -9,0l-8,0 -54,82m46,20l0,61 -40,0l-41,0 40,-61c22,-34 40,-62 41,-62c0,0 0,28 0,62"/>
			<path d="m-59,-123c0,0 -1,28 -2,62l-1,61 8,0l9,0 3,-6c4,-7 10,-13 19,-17c5,-3 7,-3 16,-4c21,-1 34,6 42,22c5,11 8,30 6,46c-2,19 -6,28 -16,38c-10,10 -18,13 -34,13c-20,0 -33,-6 -37,-15c-2,-5 -1,-7 3,-12c5,-6 6,-10 3,-15c-2,-5 -6,-8 -10,-8c-6,-1 -9,0 -12,3c-12,10 -8,35 8,50c6,5 17,10 25,13c10,2 34,2 44,-1c26,-7 43,-24 51,-51c3,-12 4,-32 2,-44c-6,-27 -24,-48 -48,-55c-8,-2 -25,-2 -35,0c-9,2 -18,7 -26,14l-6,5 0,-38l1,-37 53,0l52,0 3,-12l3,-12 -62,0c-34,0 -62,0 -62,0"/>
			<path transform="translate(-375,0)" d="m-13,-122c-12,3 -20,8 -31,18c-10,10 -14,18 -20,36c-7,22 -11,61 -8,96c1,16 3,24 7,36c5,13 9,19 19,29c12,13 24,17 43,17c18,0 31,-5 44,-16c17,-14 27,-37 27,-63c0,-23 -6,-39 -19,-52c-12,-11 -26,-16 -45,-16c-16,0 -29,4 -43,13c-3,2 -6,4 -6,4c-1,0 1,-25 4,-36c6,-33 18,-49 40,-51c7,-1 18,0 24,3c5,2 13,10 13,12c0,1 -2,4 -3,7c-7,9 -8,16 -2,21c3,4 6,5 11,5c5,0 9,-2 12,-6c6,-6 7,-18 2,-29c-5,-11 -19,-22 -33,-26c-9,-3 -27,-3 -36,-2m29,105c19,7 27,27 24,58c-2,22 -7,35 -17,44c-7,7 -14,9 -26,9c-8,0 -10,0 -15,-2c-6,-3 -12,-9 -17,-17c-7,-12 -9,-27 -11,-57l0,-18 7,-5c9,-7 21,-13 29,-14c7,-1 21,0 26,2"/>
			<path transform="translate(-749,0)" d="m-71,-122c0,1 -1,14 -2,30c-1,15 -2,29 -2,30l0,3 7,0l8,0 0,-5c0,-11 2,-24 4,-28c3,-7 2,-7 59,-7l50,0 -4,4c-11,12 -31,42 -42,64c-18,36 -27,74 -27,113c0,15 1,20 5,25c3,2 5,3 8,3c7,0 11,-2 13,-7c2,-4 2,-6 3,-35c1,-24 1,-35 3,-44c4,-25 9,-44 19,-63c10,-20 19,-32 38,-52l8,-9 0,-11l0,-11 -74,-1c-59,0 -74,0 -74,1"/>
			<path transform="translate(-1124,0)" d="m-18,-121c-24,5 -43,21 -48,42c0,3 -1,9 -1,15c0,9 0,12 2,17c5,12 15,23 27,30l6,3 -7,4c-20,11 -30,23 -34,42c-7,28 6,57 33,70c11,5 18,7 33,8c16,0 27,-1 39,-6c29,-12 45,-38 41,-67c-4,-23 -13,-36 -36,-48l-8,-5 8,-3c9,-5 19,-15 23,-23c8,-15 8,-34 1,-50c-4,-8 -15,-18 -25,-23c-15,-7 -37,-10 -54,-6m33,16c15,5 24,16 25,34c0,9 -2,20 -5,27c-1,2 -4,6 -7,9c-5,5 -15,11 -19,11c-6,0 -34,-15 -42,-23c-8,-8 -10,-12 -9,-23c0,-8 0,-10 2,-15c4,-8 9,-13 16,-17c8,-4 11,-5 23,-5c7,0 11,1 16,2m-12,105c16,7 22,10 28,16c10,9 15,20 15,34c0,26 -16,43 -44,45c-20,1 -37,-8 -44,-24c-8,-17 -7,-42 1,-55c7,-11 24,-23 30,-21c1,0 8,3 14,5"/>
			<path transform="translate(-1498,0)" d="m-19,-121c-20,5 -36,18 -44,35c-8,15 -8,20 -8,42c-1,20 0,24 7,38c5,12 21,24 37,28c10,2 28,1 38,-2c8,-3 17,-9 25,-15l5,-3 0,8c-2,15 -5,35 -8,44c-5,18 -13,32 -23,36c-19,10 -50,3 -50,-11c0,-2 1,-4 5,-8c5,-6 6,-11 3,-16c-6,-9 -15,-10 -23,-5c-7,4 -9,9 -8,19c0,7 0,9 3,15c9,20 34,30 61,26c16,-3 25,-8 37,-20c11,-12 16,-20 21,-37c10,-32 12,-93 3,-125c-6,-24 -21,-40 -44,-48c-8,-3 -28,-4 -37,-1m35,18c3,2 8,5 10,7c10,11 13,24 16,66l0,14 -8,6c-29,23 -60,22 -73,-2c-5,-9 -6,-20 -6,-37c1,-13 1,-17 3,-24c5,-15 9,-22 18,-28c7,-5 11,-6 23,-6c10,1 11,1 17,4"/>
		</g>
		<g transform="translate(0,2097)">
			<path transform="translate(1498,0)" d="m69,-29c-1,1 -25,4 -57,7c-19,2 -45,5 -58,7c-13,2 -31,4 -40,4c-9,1 -17,2 -18,3c-7,4 0,13 13,20c8,4 10,4 20,1c34,-11 66,-15 131,-16c45,0 45,0 47,-5c2,-5 -3,-11 -16,-17c-6,-3 -8,-4 -15,-4c-3,0 -7,0 -7,0"/>
			<path transform="translate(1124,0)" d="m19,-66c-11,3 -36,7 -53,9c-28,4 -29,4 -29,9c0,5 7,10 18,12c8,1 25,0 59,-4c39,-6 47,-8 48,-14c0,-5 -2,-7 -10,-11c-7,-3 -8,-4 -16,-4c-8,0 -11,1 -17,3m68,95c-1,1 -32,4 -72,8c-33,2 -117,10 -127,11c-5,0 -6,1 -8,2c-1,3 0,6 3,10c4,3 14,9 18,11c6,2 9,1 21,-1c26,-7 51,-9 101,-12c32,-2 40,-2 65,-1l29,1 2,-2c3,-3 3,-8 0,-11c-3,-3 -11,-9 -17,-12c-5,-3 -14,-5 -15,-4"/>
			<path transform="translate(749,0)" d="m39,-86c-17,6 -59,13 -100,17c-7,1 -10,1 -11,3c-2,2 -2,2 -1,5c2,4 7,7 14,8c10,1 33,-1 62,-4c42,-6 59,-10 62,-13c2,-2 1,-7 -2,-10c-5,-4 -18,-8 -24,-6m-11,72c-12,3 -37,7 -63,9c-24,3 -26,4 -26,9c0,3 3,5 10,7c11,4 17,3 50,0c47,-6 58,-8 58,-12c1,-5 -2,-7 -9,-11c-8,-4 -11,-4 -20,-2m51,61c-5,1 -33,5 -42,5c-4,1 -19,2 -35,4c-16,1 -38,3 -49,4c-11,1 -28,2 -37,3c-33,2 -34,2 -34,7c0,4 5,8 13,12c10,5 15,5 33,1c35,-7 80,-10 141,-11l46,0 2,-2c4,-5 2,-9 -10,-17c-10,-7 -16,-8 -28,-6"/>
			<path transform="translate(375,0)" d="m69,-69c-10,2 -41,6 -104,11c-48,5 -45,5 -54,3c-7,-2 -9,-2 -12,-1c-5,2 -4,5 1,14c2,4 5,9 5,13c1,4 3,22 5,42c3,38 5,54 8,58c1,3 5,6 7,6c3,0 7,-4 8,-8c0,-3 0,-3 5,-3c2,0 10,-1 17,-1c33,-4 88,-7 89,-5c1,0 3,5 6,10c6,10 9,13 15,11c8,-2 15,-14 20,-31c1,-5 4,-25 7,-43c6,-45 6,-42 12,-52c2,-4 1,-8 -5,-14c-8,-7 -15,-11 -21,-11c-3,0 -7,1 -9,1m3,20c3,4 -4,68 -11,89l-1,5 -4,-2c-5,-2 -14,-3 -27,-1c-29,3 -95,9 -95,8c0,-2 -8,-88 -7,-88c0,-1 35,-3 36,-3c0,1 0,5 0,9c0,17 -6,35 -17,48c-6,7 -7,10 -5,12c2,2 5,1 11,-2c11,-6 24,-21 27,-34c6,-18 8,-29 8,-33l0,-4 5,0c3,0 7,0 8,-1c2,0 2,0 2,7c0,4 -1,15 -1,24c-1,18 -1,21 4,27c4,5 10,8 19,10c14,2 33,1 37,-4c4,-4 1,-12 -6,-14c-4,-2 -5,-2 -12,-1c-14,2 -21,1 -23,-4c-1,-5 2,-35 6,-41c0,-2 1,-4 0,-4c0,-2 1,-2 6,-2c4,0 11,-1 18,-1c18,-1 21,-1 22,0"/>
			<path d="m40,-89c-6,2 -21,4 -37,6c-9,0 -24,2 -35,3c-11,2 -26,4 -34,5c-8,0 -15,2 -16,2c-1,1 -2,2 -2,4c0,3 3,6 11,10c6,3 7,3 33,-1c11,-2 16,-2 16,-2c3,5 -5,50 -9,51c-1,1 -10,2 -21,3c-16,1 -19,2 -20,3c-2,3 1,7 6,11c5,3 9,3 22,1c5,-1 9,-1 10,-1c1,1 -16,57 -18,59c0,1 -11,2 -23,2c-13,1 -27,2 -32,3c-7,0 -8,0 -10,3c-3,4 2,9 14,15c8,4 11,4 20,2c30,-7 120,-13 183,-11c16,0 18,0 20,-1c4,-3 4,-7 0,-11c-1,-2 -6,-5 -11,-7l-8,-4 -12,0c-6,0 -19,0 -29,1c-9,1 -18,2 -20,2l-3,0 7,-21c8,-23 10,-28 16,-35c1,-2 3,-5 3,-7c0,-5 -11,-13 -22,-16c-5,-2 -5,-2 -11,0c-8,2 -34,7 -35,6c0,-1 7,-22 11,-32c4,-8 4,-11 1,-16l-2,-3 2,0c4,-1 17,-2 41,-3c24,-1 27,-2 28,-6c1,-9 -21,-18 -34,-15m-12,90c1,3 -4,23 -11,43c-3,8 -6,16 -7,16c-1,1 -40,4 -41,3c0,0 2,-10 6,-22c4,-13 9,-26 10,-30l2,-8 13,-1c7,-1 14,-2 15,-2c7,-1 12,-1 13,1"/>
			<path transform="translate(-375,0)" d="m-28,-89c-1,1 -1,3 -1,4c0,5 12,33 17,41c2,3 3,4 3,5c0,0 -10,1 -22,2c-12,2 -29,4 -38,5c-9,2 -21,3 -26,3c-5,1 -11,2 -12,2c-5,2 -5,8 0,12c4,3 18,10 21,10c1,0 6,-1 10,-2c35,-11 74,-16 146,-17c35,0 37,0 40,-2c5,-5 1,-12 -12,-19c-11,-5 -14,-5 -25,-4c-7,2 -53,7 -58,7c-1,0 -2,-1 -2,-9c0,-11 -2,-18 -10,-26c-10,-10 -28,-17 -31,-12m-20,99c-2,0 -3,2 -3,3c-3,11 -4,15 -7,21c-5,9 -22,32 -34,45c-9,9 -11,11 -11,14c0,2 1,3 2,4c3,1 7,-1 19,-8c15,-10 25,-19 36,-31c5,-6 14,-15 19,-20c12,-12 12,-14 1,-22c-9,-6 -18,-9 -22,-6m64,5c-3,2 -2,5 3,12c3,3 9,11 13,19c19,30 31,46 37,50c5,3 10,2 13,-2c7,-11 0,-36 -16,-51c-11,-11 -32,-25 -43,-29c-5,-1 -4,-1 -7,1"/>
			<path transform="translate(-749,0)" d="m-29,-90c-6,1 -7,6 -4,11c1,3 2,7 2,33c0,17 0,30 0,30c-1,0 -13,2 -27,5c-15,3 -31,6 -37,6c-11,2 -15,4 -15,7c0,4 14,12 22,14c3,0 10,-2 29,-6c14,-4 26,-7 27,-7c1,0 1,2 1,9c-2,23 3,47 12,56c10,11 29,16 56,15c21,-1 47,-6 54,-9c8,-5 6,-14 -5,-20c-8,-3 -11,-4 -23,0c-14,4 -32,7 -45,7c-16,0 -21,-2 -25,-10c-3,-5 -4,-25 -3,-41l1,-11 22,-4c26,-3 45,-5 71,-7c19,-1 23,-2 26,-5c3,-5 -4,-12 -18,-18c-9,-4 -12,-4 -30,1c-13,3 -70,14 -71,14c0,0 1,-9 2,-20c1,-18 2,-22 5,-34c1,-4 1,-4 -1,-7c-1,-1 -4,-4 -6,-5c-5,-2 -17,-5 -20,-4"/>
			<path transform="translate(-1124,0)" d="m-39,-79c-4,2 -4,3 -4,7c1,2 4,4 14,7c13,3 16,8 48,68c17,31 31,53 36,59c8,7 11,8 38,8c27,0 31,0 32,-3c3,-5 1,-7 -18,-16c-23,-12 -40,-23 -51,-34c-11,-11 -15,-16 -27,-36c-30,-50 -33,-53 -42,-58c-7,-3 -21,-4 -26,-2m-16,51c0,1 -1,5 -2,8c-2,15 -10,29 -27,49c-9,10 -26,26 -35,32c-5,4 -6,7 -5,10c4,4 11,1 30,-11c16,-11 34,-28 47,-45c5,-6 11,-13 14,-16c5,-6 6,-7 6,-10c0,-5 -4,-9 -12,-14c-7,-4 -14,-5 -16,-3"/>
			<path transform="translate(-1498,0)" d="m-34,-107c-1,3 -1,4 0,13c2,8 2,13 1,21c-1,14 -6,41 -7,43c-2,2 -36,10 -49,12c-11,1 -15,3 -15,6c0,4 11,12 19,13c3,0 8,-1 22,-6c9,-3 17,-5 18,-5c1,1 -7,23 -13,35c-11,24 -34,52 -52,66c-9,6 -10,10 -4,12c6,3 34,-14 50,-30c16,-16 31,-45 40,-76l5,-15 14,-5c15,-5 19,-6 19,-4c0,1 -2,7 -4,15c-8,26 -13,48 -13,61c0,34 19,53 54,57c19,2 45,-2 57,-8c2,-1 5,-4 8,-6c5,-6 5,-9 2,-14c-7,-9 -8,-14 -10,-30c0,-5 -1,-9 -1,-10c-1,-2 -6,-3 -8,-1c0,1 -2,8 -4,15c-2,7 -5,15 -6,18c-4,8 -18,12 -36,10c-5,-1 -12,-2 -16,-3c-12,-4 -17,-13 -17,-27c0,-14 7,-41 17,-63c2,-7 5,-11 9,-15c3,-3 5,-6 5,-8c0,-5 -13,-14 -23,-15c-4,0 -6,0 -14,4c-11,4 -28,10 -29,9c0,-1 7,-38 10,-44c0,-3 2,-5 2,-7c1,-1 2,-3 1,-4c-1,-6 -15,-15 -25,-16c-4,0 -5,0 -7,2"/>
		</g>
	</g>
</svg>