<?xml version="1.0" standalone="no"?>
<!DOCTYPE svg PUBLIC "-//W3C//DTD SVG 20010904//EN"
 "http://www.w3.org/TR/2001/REC-SVG-20010904/DTD/svg10.dtd">
<svg version="1.0" xmlns="http://www.w3.org/2000/svg"
 width="200.000000pt" height="200.000000pt" viewBox="0 0 200.000000 200.000000"
 preserveAspectRatio="xMidYMid meet">

<g transform="translate(0.000000,200.000000) scale(0.100000,-0.100000)"
fill="#000000" stroke="none">
<path d="M866 1979 c-408 -59 -728 -352 -828 -756 -27 -111 -30 -319 -5 -429
46 -205 142 -371 295 -515 89 -85 142 -121 256 -175 142 -67 242 -88 416 -88
175 0 274 21 418 89 217 103 374 260 477 477 68 144 89 243 89 418 0 117 -4
162 -22 234 -24 97 -90 245 -143 323 -43 63 -150 175 -220 228 -201 156 -483
230 -733 194z m289 -104 c172 -30 319 -104 447 -224 204 -191 300 -426 285
-699 -7 -128 -26 -209 -77 -318 -95 -206 -238 -349 -444 -444 -109 -51 -190
-70 -318 -77 -273 -15 -508 81 -699 285 -272 290 -315 716 -108 1065 57 95
203 241 296 296 194 114 403 153 618 116z"/>
<path d="M589 1600 c-18 -34 -50 -81 -71 -105 -34 -39 -45 -45 -79 -45 l-39 0
0 -437 c0 -241 -3 -475 -7 -520 l-6 -83 77 0 76 0 0 60 0 60 90 0 c89 0 90 0
90 -25 0 -24 2 -25 70 -25 l70 0 0 240 0 240 -162 2 -163 3 0 40 0 40 88 3
c71 2 88 0 93 -13 5 -11 22 -15 75 -15 l69 0 0 215 0 215 -90 0 c-49 0 -90 2
-90 4 0 2 18 34 40 72 l40 68 -67 33 c-37 18 -68 33 -69 33 -2 0 -17 -27 -35
-60z m129 -353 l3 -88 -93 3 -93 3 -3 69 c-4 96 7 108 107 104 l76 -3 3 -88z
m2 -502 l0 -95 -90 0 -90 0 0 79 c0 44 -3 86 -6 95 -5 14 6 16 90 16 l96 0 0
-95z"/>
<path d="M1152 1525 l3 -100 -117 -3 -118 -3 0 -347 c0 -191 -3 -357 -6 -369
-6 -22 -4 -23 70 -23 l76 0 0 316 0 315 48 -3 47 -3 0 -448 0 -447 73 0 72 0
0 129 0 130 58 6 c68 8 129 34 157 65 19 21 20 40 25 351 l5 329 -122 0 -123
0 0 103 0 102 -76 0 -75 0 3 -100z m256 -457 l2 -238 -39 0 c-75 0 -71 -14
-71 247 l0 234 53 -3 52 -3 3 -237z"/>
</g>
</svg>
